%TF.GenerationSoftware,KiCad,Pcbnew,10.0.3*%
%TF.CreationDate,2026-06-30T23:59:40+05:30*%
%TF.ProjectId,esp11,65737031-312e-46b6-9963-61645f706362,rev?*%
%TF.SameCoordinates,Original*%
%TF.FileFunction,Legend,Bot*%
%TF.FilePolarity,Positive*%
%FSLAX46Y46*%
G04 Gerber Fmt 4.6, Leading zero omitted, Abs format (unit mm)*
G04 Created by KiCad (PCBNEW 10.0.3) date 2026-06-30 23:59:40*
%MOMM*%
%LPD*%
G01*
G04 APERTURE LIST*
%ADD10C,0.150000*%
%ADD11C,0.120000*%
G04 APERTURE END LIST*
D10*
X160811904Y-79054819D02*
X160811904Y-79864342D01*
X160811904Y-79864342D02*
X160764285Y-79959580D01*
X160764285Y-79959580D02*
X160716666Y-80007200D01*
X160716666Y-80007200D02*
X160621428Y-80054819D01*
X160621428Y-80054819D02*
X160430952Y-80054819D01*
X160430952Y-80054819D02*
X160335714Y-80007200D01*
X160335714Y-80007200D02*
X160288095Y-79959580D01*
X160288095Y-79959580D02*
X160240476Y-79864342D01*
X160240476Y-79864342D02*
X160240476Y-79054819D01*
X159811904Y-79150057D02*
X159764285Y-79102438D01*
X159764285Y-79102438D02*
X159669047Y-79054819D01*
X159669047Y-79054819D02*
X159430952Y-79054819D01*
X159430952Y-79054819D02*
X159335714Y-79102438D01*
X159335714Y-79102438D02*
X159288095Y-79150057D01*
X159288095Y-79150057D02*
X159240476Y-79245295D01*
X159240476Y-79245295D02*
X159240476Y-79340533D01*
X159240476Y-79340533D02*
X159288095Y-79483390D01*
X159288095Y-79483390D02*
X159859523Y-80054819D01*
X159859523Y-80054819D02*
X159240476Y-80054819D01*
X159274819Y-86755595D02*
X160084342Y-86755595D01*
X160084342Y-86755595D02*
X160179580Y-86803214D01*
X160179580Y-86803214D02*
X160227200Y-86850833D01*
X160227200Y-86850833D02*
X160274819Y-86946071D01*
X160274819Y-86946071D02*
X160274819Y-87136547D01*
X160274819Y-87136547D02*
X160227200Y-87231785D01*
X160227200Y-87231785D02*
X160179580Y-87279404D01*
X160179580Y-87279404D02*
X160084342Y-87327023D01*
X160084342Y-87327023D02*
X159274819Y-87327023D01*
X159274819Y-87707976D02*
X159274819Y-88327023D01*
X159274819Y-88327023D02*
X159655771Y-87993690D01*
X159655771Y-87993690D02*
X159655771Y-88136547D01*
X159655771Y-88136547D02*
X159703390Y-88231785D01*
X159703390Y-88231785D02*
X159751009Y-88279404D01*
X159751009Y-88279404D02*
X159846247Y-88327023D01*
X159846247Y-88327023D02*
X160084342Y-88327023D01*
X160084342Y-88327023D02*
X160179580Y-88279404D01*
X160179580Y-88279404D02*
X160227200Y-88231785D01*
X160227200Y-88231785D02*
X160274819Y-88136547D01*
X160274819Y-88136547D02*
X160274819Y-87850833D01*
X160274819Y-87850833D02*
X160227200Y-87755595D01*
X160227200Y-87755595D02*
X160179580Y-87707976D01*
X165829580Y-76188333D02*
X165877200Y-76140714D01*
X165877200Y-76140714D02*
X165924819Y-75997857D01*
X165924819Y-75997857D02*
X165924819Y-75902619D01*
X165924819Y-75902619D02*
X165877200Y-75759762D01*
X165877200Y-75759762D02*
X165781961Y-75664524D01*
X165781961Y-75664524D02*
X165686723Y-75616905D01*
X165686723Y-75616905D02*
X165496247Y-75569286D01*
X165496247Y-75569286D02*
X165353390Y-75569286D01*
X165353390Y-75569286D02*
X165162914Y-75616905D01*
X165162914Y-75616905D02*
X165067676Y-75664524D01*
X165067676Y-75664524D02*
X164972438Y-75759762D01*
X164972438Y-75759762D02*
X164924819Y-75902619D01*
X164924819Y-75902619D02*
X164924819Y-75997857D01*
X164924819Y-75997857D02*
X164972438Y-76140714D01*
X164972438Y-76140714D02*
X165020057Y-76188333D01*
X164924819Y-76521667D02*
X164924819Y-77140714D01*
X164924819Y-77140714D02*
X165305771Y-76807381D01*
X165305771Y-76807381D02*
X165305771Y-76950238D01*
X165305771Y-76950238D02*
X165353390Y-77045476D01*
X165353390Y-77045476D02*
X165401009Y-77093095D01*
X165401009Y-77093095D02*
X165496247Y-77140714D01*
X165496247Y-77140714D02*
X165734342Y-77140714D01*
X165734342Y-77140714D02*
X165829580Y-77093095D01*
X165829580Y-77093095D02*
X165877200Y-77045476D01*
X165877200Y-77045476D02*
X165924819Y-76950238D01*
X165924819Y-76950238D02*
X165924819Y-76664524D01*
X165924819Y-76664524D02*
X165877200Y-76569286D01*
X165877200Y-76569286D02*
X165829580Y-76521667D01*
X165229580Y-81833333D02*
X165277200Y-81785714D01*
X165277200Y-81785714D02*
X165324819Y-81642857D01*
X165324819Y-81642857D02*
X165324819Y-81547619D01*
X165324819Y-81547619D02*
X165277200Y-81404762D01*
X165277200Y-81404762D02*
X165181961Y-81309524D01*
X165181961Y-81309524D02*
X165086723Y-81261905D01*
X165086723Y-81261905D02*
X164896247Y-81214286D01*
X164896247Y-81214286D02*
X164753390Y-81214286D01*
X164753390Y-81214286D02*
X164562914Y-81261905D01*
X164562914Y-81261905D02*
X164467676Y-81309524D01*
X164467676Y-81309524D02*
X164372438Y-81404762D01*
X164372438Y-81404762D02*
X164324819Y-81547619D01*
X164324819Y-81547619D02*
X164324819Y-81642857D01*
X164324819Y-81642857D02*
X164372438Y-81785714D01*
X164372438Y-81785714D02*
X164420057Y-81833333D01*
X165324819Y-82785714D02*
X165324819Y-82214286D01*
X165324819Y-82500000D02*
X164324819Y-82500000D01*
X164324819Y-82500000D02*
X164467676Y-82404762D01*
X164467676Y-82404762D02*
X164562914Y-82309524D01*
X164562914Y-82309524D02*
X164610533Y-82214286D01*
%TO.C,U2*%
D11*
X158390000Y-75790000D02*
X158390000Y-77050000D01*
X158390000Y-82610000D02*
X158390000Y-81350000D01*
X162150000Y-75790000D02*
X158390000Y-75790000D01*
X162150000Y-82610000D02*
X158390000Y-82610000D01*
X163430000Y-75890000D02*
X163670000Y-75560000D01*
X163190000Y-75560000D01*
X163430000Y-75890000D01*
G36*
X163430000Y-75890000D02*
G01*
X163190000Y-75560000D01*
X163670000Y-75560000D01*
X163430000Y-75890000D01*
G37*
%TO.C,U3*%
X157590000Y-85090000D02*
X157590000Y-85815000D01*
X157590000Y-89585000D02*
X157590000Y-90310000D01*
X157590000Y-90310000D02*
X158315000Y-90310000D01*
X158315000Y-85090000D02*
X157590000Y-85090000D01*
X162085000Y-90310000D02*
X162810000Y-90310000D01*
X162810000Y-85090000D02*
X162085000Y-85090000D01*
X162810000Y-85815000D02*
X162810000Y-85090000D01*
X162810000Y-90310000D02*
X162810000Y-89585000D01*
X161700000Y-90810000D02*
X161460000Y-91140000D01*
X161940000Y-91140000D01*
X161700000Y-90810000D01*
G36*
X161940000Y-91140000D02*
G01*
X161460000Y-91140000D01*
X161700000Y-90810000D01*
X161940000Y-91140000D01*
G37*
%TO.C,C3*%
X166390000Y-76214420D02*
X166390000Y-76495580D01*
X167410000Y-76214420D02*
X167410000Y-76495580D01*
%TO.C,C1*%
X165790000Y-81859420D02*
X165790000Y-82140580D01*
X166810000Y-81859420D02*
X166810000Y-82140580D01*
%TD*%
M02*
