%TF.GenerationSoftware,KiCad,Pcbnew,10.0.3*%
%TF.CreationDate,2026-06-30T23:59:40+05:30*%
%TF.ProjectId,esp11,65737031-312e-46b6-9963-61645f706362,rev?*%
%TF.SameCoordinates,Original*%
%TF.FileFunction,Legend,Top*%
%TF.FilePolarity,Positive*%
%FSLAX46Y46*%
G04 Gerber Fmt 4.6, Leading zero omitted, Abs format (unit mm)*
G04 Created by KiCad (PCBNEW 10.0.3) date 2026-06-30 23:59:40*
%MOMM*%
%LPD*%
G01*
G04 APERTURE LIST*
%ADD10C,0.150000*%
%ADD11C,0.120000*%
%ADD12C,0.127000*%
%ADD13C,0.200000*%
G04 APERTURE END LIST*
D10*
X162561905Y-72654819D02*
X162561905Y-71654819D01*
X162561905Y-71654819D02*
X162800000Y-71654819D01*
X162800000Y-71654819D02*
X162942857Y-71702438D01*
X162942857Y-71702438D02*
X163038095Y-71797676D01*
X163038095Y-71797676D02*
X163085714Y-71892914D01*
X163085714Y-71892914D02*
X163133333Y-72083390D01*
X163133333Y-72083390D02*
X163133333Y-72226247D01*
X163133333Y-72226247D02*
X163085714Y-72416723D01*
X163085714Y-72416723D02*
X163038095Y-72511961D01*
X163038095Y-72511961D02*
X162942857Y-72607200D01*
X162942857Y-72607200D02*
X162800000Y-72654819D01*
X162800000Y-72654819D02*
X162561905Y-72654819D01*
X163990476Y-71988152D02*
X163990476Y-72654819D01*
X163752381Y-71607200D02*
X163514286Y-72321485D01*
X163514286Y-72321485D02*
X164133333Y-72321485D01*
X173966666Y-52954819D02*
X173966666Y-53669104D01*
X173966666Y-53669104D02*
X173919047Y-53811961D01*
X173919047Y-53811961D02*
X173823809Y-53907200D01*
X173823809Y-53907200D02*
X173680952Y-53954819D01*
X173680952Y-53954819D02*
X173585714Y-53954819D01*
X174347619Y-52954819D02*
X174966666Y-52954819D01*
X174966666Y-52954819D02*
X174633333Y-53335771D01*
X174633333Y-53335771D02*
X174776190Y-53335771D01*
X174776190Y-53335771D02*
X174871428Y-53383390D01*
X174871428Y-53383390D02*
X174919047Y-53431009D01*
X174919047Y-53431009D02*
X174966666Y-53526247D01*
X174966666Y-53526247D02*
X174966666Y-53764342D01*
X174966666Y-53764342D02*
X174919047Y-53859580D01*
X174919047Y-53859580D02*
X174871428Y-53907200D01*
X174871428Y-53907200D02*
X174776190Y-53954819D01*
X174776190Y-53954819D02*
X174490476Y-53954819D01*
X174490476Y-53954819D02*
X174395238Y-53907200D01*
X174395238Y-53907200D02*
X174347619Y-53859580D01*
X167257142Y-102124819D02*
X166923809Y-101648628D01*
X166685714Y-102124819D02*
X166685714Y-101124819D01*
X166685714Y-101124819D02*
X167066666Y-101124819D01*
X167066666Y-101124819D02*
X167161904Y-101172438D01*
X167161904Y-101172438D02*
X167209523Y-101220057D01*
X167209523Y-101220057D02*
X167257142Y-101315295D01*
X167257142Y-101315295D02*
X167257142Y-101458152D01*
X167257142Y-101458152D02*
X167209523Y-101553390D01*
X167209523Y-101553390D02*
X167161904Y-101601009D01*
X167161904Y-101601009D02*
X167066666Y-101648628D01*
X167066666Y-101648628D02*
X166685714Y-101648628D01*
X167638095Y-101220057D02*
X167685714Y-101172438D01*
X167685714Y-101172438D02*
X167780952Y-101124819D01*
X167780952Y-101124819D02*
X168019047Y-101124819D01*
X168019047Y-101124819D02*
X168114285Y-101172438D01*
X168114285Y-101172438D02*
X168161904Y-101220057D01*
X168161904Y-101220057D02*
X168209523Y-101315295D01*
X168209523Y-101315295D02*
X168209523Y-101410533D01*
X168209523Y-101410533D02*
X168161904Y-101553390D01*
X168161904Y-101553390D02*
X167590476Y-102124819D01*
X167590476Y-102124819D02*
X168209523Y-102124819D01*
X168590476Y-101220057D02*
X168638095Y-101172438D01*
X168638095Y-101172438D02*
X168733333Y-101124819D01*
X168733333Y-101124819D02*
X168971428Y-101124819D01*
X168971428Y-101124819D02*
X169066666Y-101172438D01*
X169066666Y-101172438D02*
X169114285Y-101220057D01*
X169114285Y-101220057D02*
X169161904Y-101315295D01*
X169161904Y-101315295D02*
X169161904Y-101410533D01*
X169161904Y-101410533D02*
X169114285Y-101553390D01*
X169114285Y-101553390D02*
X168542857Y-102124819D01*
X168542857Y-102124819D02*
X169161904Y-102124819D01*
X155807142Y-80129580D02*
X155759523Y-80177200D01*
X155759523Y-80177200D02*
X155616666Y-80224819D01*
X155616666Y-80224819D02*
X155521428Y-80224819D01*
X155521428Y-80224819D02*
X155378571Y-80177200D01*
X155378571Y-80177200D02*
X155283333Y-80081961D01*
X155283333Y-80081961D02*
X155235714Y-79986723D01*
X155235714Y-79986723D02*
X155188095Y-79796247D01*
X155188095Y-79796247D02*
X155188095Y-79653390D01*
X155188095Y-79653390D02*
X155235714Y-79462914D01*
X155235714Y-79462914D02*
X155283333Y-79367676D01*
X155283333Y-79367676D02*
X155378571Y-79272438D01*
X155378571Y-79272438D02*
X155521428Y-79224819D01*
X155521428Y-79224819D02*
X155616666Y-79224819D01*
X155616666Y-79224819D02*
X155759523Y-79272438D01*
X155759523Y-79272438D02*
X155807142Y-79320057D01*
X156759523Y-80224819D02*
X156188095Y-80224819D01*
X156473809Y-80224819D02*
X156473809Y-79224819D01*
X156473809Y-79224819D02*
X156378571Y-79367676D01*
X156378571Y-79367676D02*
X156283333Y-79462914D01*
X156283333Y-79462914D02*
X156188095Y-79510533D01*
X157235714Y-80224819D02*
X157426190Y-80224819D01*
X157426190Y-80224819D02*
X157521428Y-80177200D01*
X157521428Y-80177200D02*
X157569047Y-80129580D01*
X157569047Y-80129580D02*
X157664285Y-79986723D01*
X157664285Y-79986723D02*
X157711904Y-79796247D01*
X157711904Y-79796247D02*
X157711904Y-79415295D01*
X157711904Y-79415295D02*
X157664285Y-79320057D01*
X157664285Y-79320057D02*
X157616666Y-79272438D01*
X157616666Y-79272438D02*
X157521428Y-79224819D01*
X157521428Y-79224819D02*
X157330952Y-79224819D01*
X157330952Y-79224819D02*
X157235714Y-79272438D01*
X157235714Y-79272438D02*
X157188095Y-79320057D01*
X157188095Y-79320057D02*
X157140476Y-79415295D01*
X157140476Y-79415295D02*
X157140476Y-79653390D01*
X157140476Y-79653390D02*
X157188095Y-79748628D01*
X157188095Y-79748628D02*
X157235714Y-79796247D01*
X157235714Y-79796247D02*
X157330952Y-79843866D01*
X157330952Y-79843866D02*
X157521428Y-79843866D01*
X157521428Y-79843866D02*
X157616666Y-79796247D01*
X157616666Y-79796247D02*
X157664285Y-79748628D01*
X157664285Y-79748628D02*
X157711904Y-79653390D01*
X150882142Y-87389580D02*
X150834523Y-87437200D01*
X150834523Y-87437200D02*
X150691666Y-87484819D01*
X150691666Y-87484819D02*
X150596428Y-87484819D01*
X150596428Y-87484819D02*
X150453571Y-87437200D01*
X150453571Y-87437200D02*
X150358333Y-87341961D01*
X150358333Y-87341961D02*
X150310714Y-87246723D01*
X150310714Y-87246723D02*
X150263095Y-87056247D01*
X150263095Y-87056247D02*
X150263095Y-86913390D01*
X150263095Y-86913390D02*
X150310714Y-86722914D01*
X150310714Y-86722914D02*
X150358333Y-86627676D01*
X150358333Y-86627676D02*
X150453571Y-86532438D01*
X150453571Y-86532438D02*
X150596428Y-86484819D01*
X150596428Y-86484819D02*
X150691666Y-86484819D01*
X150691666Y-86484819D02*
X150834523Y-86532438D01*
X150834523Y-86532438D02*
X150882142Y-86580057D01*
X151834523Y-87484819D02*
X151263095Y-87484819D01*
X151548809Y-87484819D02*
X151548809Y-86484819D01*
X151548809Y-86484819D02*
X151453571Y-86627676D01*
X151453571Y-86627676D02*
X151358333Y-86722914D01*
X151358333Y-86722914D02*
X151263095Y-86770533D01*
X152739285Y-86484819D02*
X152263095Y-86484819D01*
X152263095Y-86484819D02*
X152215476Y-86961009D01*
X152215476Y-86961009D02*
X152263095Y-86913390D01*
X152263095Y-86913390D02*
X152358333Y-86865771D01*
X152358333Y-86865771D02*
X152596428Y-86865771D01*
X152596428Y-86865771D02*
X152691666Y-86913390D01*
X152691666Y-86913390D02*
X152739285Y-86961009D01*
X152739285Y-86961009D02*
X152786904Y-87056247D01*
X152786904Y-87056247D02*
X152786904Y-87294342D01*
X152786904Y-87294342D02*
X152739285Y-87389580D01*
X152739285Y-87389580D02*
X152691666Y-87437200D01*
X152691666Y-87437200D02*
X152596428Y-87484819D01*
X152596428Y-87484819D02*
X152358333Y-87484819D01*
X152358333Y-87484819D02*
X152263095Y-87437200D01*
X152263095Y-87437200D02*
X152215476Y-87389580D01*
X152729761Y-95265057D02*
X152634523Y-95217438D01*
X152634523Y-95217438D02*
X152539285Y-95122200D01*
X152539285Y-95122200D02*
X152396428Y-94979342D01*
X152396428Y-94979342D02*
X152301190Y-94931723D01*
X152301190Y-94931723D02*
X152205952Y-94931723D01*
X152253571Y-95169819D02*
X152158333Y-95122200D01*
X152158333Y-95122200D02*
X152063095Y-95026961D01*
X152063095Y-95026961D02*
X152015476Y-94836485D01*
X152015476Y-94836485D02*
X152015476Y-94503152D01*
X152015476Y-94503152D02*
X152063095Y-94312676D01*
X152063095Y-94312676D02*
X152158333Y-94217438D01*
X152158333Y-94217438D02*
X152253571Y-94169819D01*
X152253571Y-94169819D02*
X152444047Y-94169819D01*
X152444047Y-94169819D02*
X152539285Y-94217438D01*
X152539285Y-94217438D02*
X152634523Y-94312676D01*
X152634523Y-94312676D02*
X152682142Y-94503152D01*
X152682142Y-94503152D02*
X152682142Y-94836485D01*
X152682142Y-94836485D02*
X152634523Y-95026961D01*
X152634523Y-95026961D02*
X152539285Y-95122200D01*
X152539285Y-95122200D02*
X152444047Y-95169819D01*
X152444047Y-95169819D02*
X152253571Y-95169819D01*
X153634523Y-95169819D02*
X153063095Y-95169819D01*
X153348809Y-95169819D02*
X153348809Y-94169819D01*
X153348809Y-94169819D02*
X153253571Y-94312676D01*
X153253571Y-94312676D02*
X153158333Y-94407914D01*
X153158333Y-94407914D02*
X153063095Y-94455533D01*
X151361905Y-72854819D02*
X151361905Y-71854819D01*
X151361905Y-71854819D02*
X151600000Y-71854819D01*
X151600000Y-71854819D02*
X151742857Y-71902438D01*
X151742857Y-71902438D02*
X151838095Y-71997676D01*
X151838095Y-71997676D02*
X151885714Y-72092914D01*
X151885714Y-72092914D02*
X151933333Y-72283390D01*
X151933333Y-72283390D02*
X151933333Y-72426247D01*
X151933333Y-72426247D02*
X151885714Y-72616723D01*
X151885714Y-72616723D02*
X151838095Y-72711961D01*
X151838095Y-72711961D02*
X151742857Y-72807200D01*
X151742857Y-72807200D02*
X151600000Y-72854819D01*
X151600000Y-72854819D02*
X151361905Y-72854819D01*
X152790476Y-71854819D02*
X152600000Y-71854819D01*
X152600000Y-71854819D02*
X152504762Y-71902438D01*
X152504762Y-71902438D02*
X152457143Y-71950057D01*
X152457143Y-71950057D02*
X152361905Y-72092914D01*
X152361905Y-72092914D02*
X152314286Y-72283390D01*
X152314286Y-72283390D02*
X152314286Y-72664342D01*
X152314286Y-72664342D02*
X152361905Y-72759580D01*
X152361905Y-72759580D02*
X152409524Y-72807200D01*
X152409524Y-72807200D02*
X152504762Y-72854819D01*
X152504762Y-72854819D02*
X152695238Y-72854819D01*
X152695238Y-72854819D02*
X152790476Y-72807200D01*
X152790476Y-72807200D02*
X152838095Y-72759580D01*
X152838095Y-72759580D02*
X152885714Y-72664342D01*
X152885714Y-72664342D02*
X152885714Y-72426247D01*
X152885714Y-72426247D02*
X152838095Y-72331009D01*
X152838095Y-72331009D02*
X152790476Y-72283390D01*
X152790476Y-72283390D02*
X152695238Y-72235771D01*
X152695238Y-72235771D02*
X152504762Y-72235771D01*
X152504762Y-72235771D02*
X152409524Y-72283390D01*
X152409524Y-72283390D02*
X152361905Y-72331009D01*
X152361905Y-72331009D02*
X152314286Y-72426247D01*
X158358333Y-76229580D02*
X158310714Y-76277200D01*
X158310714Y-76277200D02*
X158167857Y-76324819D01*
X158167857Y-76324819D02*
X158072619Y-76324819D01*
X158072619Y-76324819D02*
X157929762Y-76277200D01*
X157929762Y-76277200D02*
X157834524Y-76181961D01*
X157834524Y-76181961D02*
X157786905Y-76086723D01*
X157786905Y-76086723D02*
X157739286Y-75896247D01*
X157739286Y-75896247D02*
X157739286Y-75753390D01*
X157739286Y-75753390D02*
X157786905Y-75562914D01*
X157786905Y-75562914D02*
X157834524Y-75467676D01*
X157834524Y-75467676D02*
X157929762Y-75372438D01*
X157929762Y-75372438D02*
X158072619Y-75324819D01*
X158072619Y-75324819D02*
X158167857Y-75324819D01*
X158167857Y-75324819D02*
X158310714Y-75372438D01*
X158310714Y-75372438D02*
X158358333Y-75420057D01*
X158834524Y-76324819D02*
X159025000Y-76324819D01*
X159025000Y-76324819D02*
X159120238Y-76277200D01*
X159120238Y-76277200D02*
X159167857Y-76229580D01*
X159167857Y-76229580D02*
X159263095Y-76086723D01*
X159263095Y-76086723D02*
X159310714Y-75896247D01*
X159310714Y-75896247D02*
X159310714Y-75515295D01*
X159310714Y-75515295D02*
X159263095Y-75420057D01*
X159263095Y-75420057D02*
X159215476Y-75372438D01*
X159215476Y-75372438D02*
X159120238Y-75324819D01*
X159120238Y-75324819D02*
X158929762Y-75324819D01*
X158929762Y-75324819D02*
X158834524Y-75372438D01*
X158834524Y-75372438D02*
X158786905Y-75420057D01*
X158786905Y-75420057D02*
X158739286Y-75515295D01*
X158739286Y-75515295D02*
X158739286Y-75753390D01*
X158739286Y-75753390D02*
X158786905Y-75848628D01*
X158786905Y-75848628D02*
X158834524Y-75896247D01*
X158834524Y-75896247D02*
X158929762Y-75943866D01*
X158929762Y-75943866D02*
X159120238Y-75943866D01*
X159120238Y-75943866D02*
X159215476Y-75896247D01*
X159215476Y-75896247D02*
X159263095Y-75848628D01*
X159263095Y-75848628D02*
X159310714Y-75753390D01*
X167107142Y-84729580D02*
X167059523Y-84777200D01*
X167059523Y-84777200D02*
X166916666Y-84824819D01*
X166916666Y-84824819D02*
X166821428Y-84824819D01*
X166821428Y-84824819D02*
X166678571Y-84777200D01*
X166678571Y-84777200D02*
X166583333Y-84681961D01*
X166583333Y-84681961D02*
X166535714Y-84586723D01*
X166535714Y-84586723D02*
X166488095Y-84396247D01*
X166488095Y-84396247D02*
X166488095Y-84253390D01*
X166488095Y-84253390D02*
X166535714Y-84062914D01*
X166535714Y-84062914D02*
X166583333Y-83967676D01*
X166583333Y-83967676D02*
X166678571Y-83872438D01*
X166678571Y-83872438D02*
X166821428Y-83824819D01*
X166821428Y-83824819D02*
X166916666Y-83824819D01*
X166916666Y-83824819D02*
X167059523Y-83872438D01*
X167059523Y-83872438D02*
X167107142Y-83920057D01*
X168059523Y-84824819D02*
X167488095Y-84824819D01*
X167773809Y-84824819D02*
X167773809Y-83824819D01*
X167773809Y-83824819D02*
X167678571Y-83967676D01*
X167678571Y-83967676D02*
X167583333Y-84062914D01*
X167583333Y-84062914D02*
X167488095Y-84110533D01*
X168916666Y-84158152D02*
X168916666Y-84824819D01*
X168678571Y-83777200D02*
X168440476Y-84491485D01*
X168440476Y-84491485D02*
X169059523Y-84491485D01*
X153366667Y-91607200D02*
X153509524Y-91654819D01*
X153509524Y-91654819D02*
X153747619Y-91654819D01*
X153747619Y-91654819D02*
X153842857Y-91607200D01*
X153842857Y-91607200D02*
X153890476Y-91559580D01*
X153890476Y-91559580D02*
X153938095Y-91464342D01*
X153938095Y-91464342D02*
X153938095Y-91369104D01*
X153938095Y-91369104D02*
X153890476Y-91273866D01*
X153890476Y-91273866D02*
X153842857Y-91226247D01*
X153842857Y-91226247D02*
X153747619Y-91178628D01*
X153747619Y-91178628D02*
X153557143Y-91131009D01*
X153557143Y-91131009D02*
X153461905Y-91083390D01*
X153461905Y-91083390D02*
X153414286Y-91035771D01*
X153414286Y-91035771D02*
X153366667Y-90940533D01*
X153366667Y-90940533D02*
X153366667Y-90845295D01*
X153366667Y-90845295D02*
X153414286Y-90750057D01*
X153414286Y-90750057D02*
X153461905Y-90702438D01*
X153461905Y-90702438D02*
X153557143Y-90654819D01*
X153557143Y-90654819D02*
X153795238Y-90654819D01*
X153795238Y-90654819D02*
X153938095Y-90702438D01*
X154271429Y-90654819D02*
X154509524Y-91654819D01*
X154509524Y-91654819D02*
X154700000Y-90940533D01*
X154700000Y-90940533D02*
X154890476Y-91654819D01*
X154890476Y-91654819D02*
X155128572Y-90654819D01*
X156033333Y-91654819D02*
X155461905Y-91654819D01*
X155747619Y-91654819D02*
X155747619Y-90654819D01*
X155747619Y-90654819D02*
X155652381Y-90797676D01*
X155652381Y-90797676D02*
X155557143Y-90892914D01*
X155557143Y-90892914D02*
X155461905Y-90940533D01*
X151457142Y-80329580D02*
X151409523Y-80377200D01*
X151409523Y-80377200D02*
X151266666Y-80424819D01*
X151266666Y-80424819D02*
X151171428Y-80424819D01*
X151171428Y-80424819D02*
X151028571Y-80377200D01*
X151028571Y-80377200D02*
X150933333Y-80281961D01*
X150933333Y-80281961D02*
X150885714Y-80186723D01*
X150885714Y-80186723D02*
X150838095Y-79996247D01*
X150838095Y-79996247D02*
X150838095Y-79853390D01*
X150838095Y-79853390D02*
X150885714Y-79662914D01*
X150885714Y-79662914D02*
X150933333Y-79567676D01*
X150933333Y-79567676D02*
X151028571Y-79472438D01*
X151028571Y-79472438D02*
X151171428Y-79424819D01*
X151171428Y-79424819D02*
X151266666Y-79424819D01*
X151266666Y-79424819D02*
X151409523Y-79472438D01*
X151409523Y-79472438D02*
X151457142Y-79520057D01*
X151838095Y-79520057D02*
X151885714Y-79472438D01*
X151885714Y-79472438D02*
X151980952Y-79424819D01*
X151980952Y-79424819D02*
X152219047Y-79424819D01*
X152219047Y-79424819D02*
X152314285Y-79472438D01*
X152314285Y-79472438D02*
X152361904Y-79520057D01*
X152361904Y-79520057D02*
X152409523Y-79615295D01*
X152409523Y-79615295D02*
X152409523Y-79710533D01*
X152409523Y-79710533D02*
X152361904Y-79853390D01*
X152361904Y-79853390D02*
X151790476Y-80424819D01*
X151790476Y-80424819D02*
X152409523Y-80424819D01*
X153361904Y-80424819D02*
X152790476Y-80424819D01*
X153076190Y-80424819D02*
X153076190Y-79424819D01*
X153076190Y-79424819D02*
X152980952Y-79567676D01*
X152980952Y-79567676D02*
X152885714Y-79662914D01*
X152885714Y-79662914D02*
X152790476Y-79710533D01*
X154461905Y-72854819D02*
X154461905Y-71854819D01*
X154461905Y-71854819D02*
X154700000Y-71854819D01*
X154700000Y-71854819D02*
X154842857Y-71902438D01*
X154842857Y-71902438D02*
X154938095Y-71997676D01*
X154938095Y-71997676D02*
X154985714Y-72092914D01*
X154985714Y-72092914D02*
X155033333Y-72283390D01*
X155033333Y-72283390D02*
X155033333Y-72426247D01*
X155033333Y-72426247D02*
X154985714Y-72616723D01*
X154985714Y-72616723D02*
X154938095Y-72711961D01*
X154938095Y-72711961D02*
X154842857Y-72807200D01*
X154842857Y-72807200D02*
X154700000Y-72854819D01*
X154700000Y-72854819D02*
X154461905Y-72854819D01*
X155938095Y-71854819D02*
X155461905Y-71854819D01*
X155461905Y-71854819D02*
X155414286Y-72331009D01*
X155414286Y-72331009D02*
X155461905Y-72283390D01*
X155461905Y-72283390D02*
X155557143Y-72235771D01*
X155557143Y-72235771D02*
X155795238Y-72235771D01*
X155795238Y-72235771D02*
X155890476Y-72283390D01*
X155890476Y-72283390D02*
X155938095Y-72331009D01*
X155938095Y-72331009D02*
X155985714Y-72426247D01*
X155985714Y-72426247D02*
X155985714Y-72664342D01*
X155985714Y-72664342D02*
X155938095Y-72759580D01*
X155938095Y-72759580D02*
X155890476Y-72807200D01*
X155890476Y-72807200D02*
X155795238Y-72854819D01*
X155795238Y-72854819D02*
X155557143Y-72854819D01*
X155557143Y-72854819D02*
X155461905Y-72807200D01*
X155461905Y-72807200D02*
X155414286Y-72759580D01*
X144966666Y-52894819D02*
X144966666Y-53609104D01*
X144966666Y-53609104D02*
X144919047Y-53751961D01*
X144919047Y-53751961D02*
X144823809Y-53847200D01*
X144823809Y-53847200D02*
X144680952Y-53894819D01*
X144680952Y-53894819D02*
X144585714Y-53894819D01*
X145395238Y-52990057D02*
X145442857Y-52942438D01*
X145442857Y-52942438D02*
X145538095Y-52894819D01*
X145538095Y-52894819D02*
X145776190Y-52894819D01*
X145776190Y-52894819D02*
X145871428Y-52942438D01*
X145871428Y-52942438D02*
X145919047Y-52990057D01*
X145919047Y-52990057D02*
X145966666Y-53085295D01*
X145966666Y-53085295D02*
X145966666Y-53180533D01*
X145966666Y-53180533D02*
X145919047Y-53323390D01*
X145919047Y-53323390D02*
X145347619Y-53894819D01*
X145347619Y-53894819D02*
X145966666Y-53894819D01*
X148294819Y-68741904D02*
X149104342Y-68741904D01*
X149104342Y-68741904D02*
X149199580Y-68694285D01*
X149199580Y-68694285D02*
X149247200Y-68646666D01*
X149247200Y-68646666D02*
X149294819Y-68551428D01*
X149294819Y-68551428D02*
X149294819Y-68360952D01*
X149294819Y-68360952D02*
X149247200Y-68265714D01*
X149247200Y-68265714D02*
X149199580Y-68218095D01*
X149199580Y-68218095D02*
X149104342Y-68170476D01*
X149104342Y-68170476D02*
X148294819Y-68170476D01*
X149294819Y-67170476D02*
X149294819Y-67741904D01*
X149294819Y-67456190D02*
X148294819Y-67456190D01*
X148294819Y-67456190D02*
X148437676Y-67551428D01*
X148437676Y-67551428D02*
X148532914Y-67646666D01*
X148532914Y-67646666D02*
X148580533Y-67741904D01*
X168729761Y-95615057D02*
X168634523Y-95567438D01*
X168634523Y-95567438D02*
X168539285Y-95472200D01*
X168539285Y-95472200D02*
X168396428Y-95329342D01*
X168396428Y-95329342D02*
X168301190Y-95281723D01*
X168301190Y-95281723D02*
X168205952Y-95281723D01*
X168253571Y-95519819D02*
X168158333Y-95472200D01*
X168158333Y-95472200D02*
X168063095Y-95376961D01*
X168063095Y-95376961D02*
X168015476Y-95186485D01*
X168015476Y-95186485D02*
X168015476Y-94853152D01*
X168015476Y-94853152D02*
X168063095Y-94662676D01*
X168063095Y-94662676D02*
X168158333Y-94567438D01*
X168158333Y-94567438D02*
X168253571Y-94519819D01*
X168253571Y-94519819D02*
X168444047Y-94519819D01*
X168444047Y-94519819D02*
X168539285Y-94567438D01*
X168539285Y-94567438D02*
X168634523Y-94662676D01*
X168634523Y-94662676D02*
X168682142Y-94853152D01*
X168682142Y-94853152D02*
X168682142Y-95186485D01*
X168682142Y-95186485D02*
X168634523Y-95376961D01*
X168634523Y-95376961D02*
X168539285Y-95472200D01*
X168539285Y-95472200D02*
X168444047Y-95519819D01*
X168444047Y-95519819D02*
X168253571Y-95519819D01*
X169063095Y-94615057D02*
X169110714Y-94567438D01*
X169110714Y-94567438D02*
X169205952Y-94519819D01*
X169205952Y-94519819D02*
X169444047Y-94519819D01*
X169444047Y-94519819D02*
X169539285Y-94567438D01*
X169539285Y-94567438D02*
X169586904Y-94615057D01*
X169586904Y-94615057D02*
X169634523Y-94710295D01*
X169634523Y-94710295D02*
X169634523Y-94805533D01*
X169634523Y-94805533D02*
X169586904Y-94948390D01*
X169586904Y-94948390D02*
X169015476Y-95519819D01*
X169015476Y-95519819D02*
X169634523Y-95519819D01*
X154082142Y-76329580D02*
X154034523Y-76377200D01*
X154034523Y-76377200D02*
X153891666Y-76424819D01*
X153891666Y-76424819D02*
X153796428Y-76424819D01*
X153796428Y-76424819D02*
X153653571Y-76377200D01*
X153653571Y-76377200D02*
X153558333Y-76281961D01*
X153558333Y-76281961D02*
X153510714Y-76186723D01*
X153510714Y-76186723D02*
X153463095Y-75996247D01*
X153463095Y-75996247D02*
X153463095Y-75853390D01*
X153463095Y-75853390D02*
X153510714Y-75662914D01*
X153510714Y-75662914D02*
X153558333Y-75567676D01*
X153558333Y-75567676D02*
X153653571Y-75472438D01*
X153653571Y-75472438D02*
X153796428Y-75424819D01*
X153796428Y-75424819D02*
X153891666Y-75424819D01*
X153891666Y-75424819D02*
X154034523Y-75472438D01*
X154034523Y-75472438D02*
X154082142Y-75520057D01*
X154463095Y-75520057D02*
X154510714Y-75472438D01*
X154510714Y-75472438D02*
X154605952Y-75424819D01*
X154605952Y-75424819D02*
X154844047Y-75424819D01*
X154844047Y-75424819D02*
X154939285Y-75472438D01*
X154939285Y-75472438D02*
X154986904Y-75520057D01*
X154986904Y-75520057D02*
X155034523Y-75615295D01*
X155034523Y-75615295D02*
X155034523Y-75710533D01*
X155034523Y-75710533D02*
X154986904Y-75853390D01*
X154986904Y-75853390D02*
X154415476Y-76424819D01*
X154415476Y-76424819D02*
X155034523Y-76424819D01*
X155653571Y-75424819D02*
X155748809Y-75424819D01*
X155748809Y-75424819D02*
X155844047Y-75472438D01*
X155844047Y-75472438D02*
X155891666Y-75520057D01*
X155891666Y-75520057D02*
X155939285Y-75615295D01*
X155939285Y-75615295D02*
X155986904Y-75805771D01*
X155986904Y-75805771D02*
X155986904Y-76043866D01*
X155986904Y-76043866D02*
X155939285Y-76234342D01*
X155939285Y-76234342D02*
X155891666Y-76329580D01*
X155891666Y-76329580D02*
X155844047Y-76377200D01*
X155844047Y-76377200D02*
X155748809Y-76424819D01*
X155748809Y-76424819D02*
X155653571Y-76424819D01*
X155653571Y-76424819D02*
X155558333Y-76377200D01*
X155558333Y-76377200D02*
X155510714Y-76329580D01*
X155510714Y-76329580D02*
X155463095Y-76234342D01*
X155463095Y-76234342D02*
X155415476Y-76043866D01*
X155415476Y-76043866D02*
X155415476Y-75805771D01*
X155415476Y-75805771D02*
X155463095Y-75615295D01*
X155463095Y-75615295D02*
X155510714Y-75520057D01*
X155510714Y-75520057D02*
X155558333Y-75472438D01*
X155558333Y-75472438D02*
X155653571Y-75424819D01*
X167732142Y-76524819D02*
X167398809Y-76048628D01*
X167160714Y-76524819D02*
X167160714Y-75524819D01*
X167160714Y-75524819D02*
X167541666Y-75524819D01*
X167541666Y-75524819D02*
X167636904Y-75572438D01*
X167636904Y-75572438D02*
X167684523Y-75620057D01*
X167684523Y-75620057D02*
X167732142Y-75715295D01*
X167732142Y-75715295D02*
X167732142Y-75858152D01*
X167732142Y-75858152D02*
X167684523Y-75953390D01*
X167684523Y-75953390D02*
X167636904Y-76001009D01*
X167636904Y-76001009D02*
X167541666Y-76048628D01*
X167541666Y-76048628D02*
X167160714Y-76048628D01*
X168684523Y-76524819D02*
X168113095Y-76524819D01*
X168398809Y-76524819D02*
X168398809Y-75524819D01*
X168398809Y-75524819D02*
X168303571Y-75667676D01*
X168303571Y-75667676D02*
X168208333Y-75762914D01*
X168208333Y-75762914D02*
X168113095Y-75810533D01*
X169255952Y-75953390D02*
X169160714Y-75905771D01*
X169160714Y-75905771D02*
X169113095Y-75858152D01*
X169113095Y-75858152D02*
X169065476Y-75762914D01*
X169065476Y-75762914D02*
X169065476Y-75715295D01*
X169065476Y-75715295D02*
X169113095Y-75620057D01*
X169113095Y-75620057D02*
X169160714Y-75572438D01*
X169160714Y-75572438D02*
X169255952Y-75524819D01*
X169255952Y-75524819D02*
X169446428Y-75524819D01*
X169446428Y-75524819D02*
X169541666Y-75572438D01*
X169541666Y-75572438D02*
X169589285Y-75620057D01*
X169589285Y-75620057D02*
X169636904Y-75715295D01*
X169636904Y-75715295D02*
X169636904Y-75762914D01*
X169636904Y-75762914D02*
X169589285Y-75858152D01*
X169589285Y-75858152D02*
X169541666Y-75905771D01*
X169541666Y-75905771D02*
X169446428Y-75953390D01*
X169446428Y-75953390D02*
X169255952Y-75953390D01*
X169255952Y-75953390D02*
X169160714Y-76001009D01*
X169160714Y-76001009D02*
X169113095Y-76048628D01*
X169113095Y-76048628D02*
X169065476Y-76143866D01*
X169065476Y-76143866D02*
X169065476Y-76334342D01*
X169065476Y-76334342D02*
X169113095Y-76429580D01*
X169113095Y-76429580D02*
X169160714Y-76477200D01*
X169160714Y-76477200D02*
X169255952Y-76524819D01*
X169255952Y-76524819D02*
X169446428Y-76524819D01*
X169446428Y-76524819D02*
X169541666Y-76477200D01*
X169541666Y-76477200D02*
X169589285Y-76429580D01*
X169589285Y-76429580D02*
X169636904Y-76334342D01*
X169636904Y-76334342D02*
X169636904Y-76143866D01*
X169636904Y-76143866D02*
X169589285Y-76048628D01*
X169589285Y-76048628D02*
X169541666Y-76001009D01*
X169541666Y-76001009D02*
X169446428Y-75953390D01*
X160933333Y-80924819D02*
X160600000Y-80448628D01*
X160361905Y-80924819D02*
X160361905Y-79924819D01*
X160361905Y-79924819D02*
X160742857Y-79924819D01*
X160742857Y-79924819D02*
X160838095Y-79972438D01*
X160838095Y-79972438D02*
X160885714Y-80020057D01*
X160885714Y-80020057D02*
X160933333Y-80115295D01*
X160933333Y-80115295D02*
X160933333Y-80258152D01*
X160933333Y-80258152D02*
X160885714Y-80353390D01*
X160885714Y-80353390D02*
X160838095Y-80401009D01*
X160838095Y-80401009D02*
X160742857Y-80448628D01*
X160742857Y-80448628D02*
X160361905Y-80448628D01*
X161314286Y-80020057D02*
X161361905Y-79972438D01*
X161361905Y-79972438D02*
X161457143Y-79924819D01*
X161457143Y-79924819D02*
X161695238Y-79924819D01*
X161695238Y-79924819D02*
X161790476Y-79972438D01*
X161790476Y-79972438D02*
X161838095Y-80020057D01*
X161838095Y-80020057D02*
X161885714Y-80115295D01*
X161885714Y-80115295D02*
X161885714Y-80210533D01*
X161885714Y-80210533D02*
X161838095Y-80353390D01*
X161838095Y-80353390D02*
X161266667Y-80924819D01*
X161266667Y-80924819D02*
X161885714Y-80924819D01*
X167132142Y-80924819D02*
X166798809Y-80448628D01*
X166560714Y-80924819D02*
X166560714Y-79924819D01*
X166560714Y-79924819D02*
X166941666Y-79924819D01*
X166941666Y-79924819D02*
X167036904Y-79972438D01*
X167036904Y-79972438D02*
X167084523Y-80020057D01*
X167084523Y-80020057D02*
X167132142Y-80115295D01*
X167132142Y-80115295D02*
X167132142Y-80258152D01*
X167132142Y-80258152D02*
X167084523Y-80353390D01*
X167084523Y-80353390D02*
X167036904Y-80401009D01*
X167036904Y-80401009D02*
X166941666Y-80448628D01*
X166941666Y-80448628D02*
X166560714Y-80448628D01*
X168084523Y-80924819D02*
X167513095Y-80924819D01*
X167798809Y-80924819D02*
X167798809Y-79924819D01*
X167798809Y-79924819D02*
X167703571Y-80067676D01*
X167703571Y-80067676D02*
X167608333Y-80162914D01*
X167608333Y-80162914D02*
X167513095Y-80210533D01*
X169036904Y-80924819D02*
X168465476Y-80924819D01*
X168751190Y-80924819D02*
X168751190Y-79924819D01*
X168751190Y-79924819D02*
X168655952Y-80067676D01*
X168655952Y-80067676D02*
X168560714Y-80162914D01*
X168560714Y-80162914D02*
X168465476Y-80210533D01*
X163857142Y-80824819D02*
X163523809Y-80348628D01*
X163285714Y-80824819D02*
X163285714Y-79824819D01*
X163285714Y-79824819D02*
X163666666Y-79824819D01*
X163666666Y-79824819D02*
X163761904Y-79872438D01*
X163761904Y-79872438D02*
X163809523Y-79920057D01*
X163809523Y-79920057D02*
X163857142Y-80015295D01*
X163857142Y-80015295D02*
X163857142Y-80158152D01*
X163857142Y-80158152D02*
X163809523Y-80253390D01*
X163809523Y-80253390D02*
X163761904Y-80301009D01*
X163761904Y-80301009D02*
X163666666Y-80348628D01*
X163666666Y-80348628D02*
X163285714Y-80348628D01*
X164238095Y-79920057D02*
X164285714Y-79872438D01*
X164285714Y-79872438D02*
X164380952Y-79824819D01*
X164380952Y-79824819D02*
X164619047Y-79824819D01*
X164619047Y-79824819D02*
X164714285Y-79872438D01*
X164714285Y-79872438D02*
X164761904Y-79920057D01*
X164761904Y-79920057D02*
X164809523Y-80015295D01*
X164809523Y-80015295D02*
X164809523Y-80110533D01*
X164809523Y-80110533D02*
X164761904Y-80253390D01*
X164761904Y-80253390D02*
X164190476Y-80824819D01*
X164190476Y-80824819D02*
X164809523Y-80824819D01*
X165142857Y-79824819D02*
X165761904Y-79824819D01*
X165761904Y-79824819D02*
X165428571Y-80205771D01*
X165428571Y-80205771D02*
X165571428Y-80205771D01*
X165571428Y-80205771D02*
X165666666Y-80253390D01*
X165666666Y-80253390D02*
X165714285Y-80301009D01*
X165714285Y-80301009D02*
X165761904Y-80396247D01*
X165761904Y-80396247D02*
X165761904Y-80634342D01*
X165761904Y-80634342D02*
X165714285Y-80729580D01*
X165714285Y-80729580D02*
X165666666Y-80777200D01*
X165666666Y-80777200D02*
X165571428Y-80824819D01*
X165571428Y-80824819D02*
X165285714Y-80824819D01*
X165285714Y-80824819D02*
X165190476Y-80777200D01*
X165190476Y-80777200D02*
X165142857Y-80729580D01*
X159866666Y-93754819D02*
X159866666Y-94469104D01*
X159866666Y-94469104D02*
X159819047Y-94611961D01*
X159819047Y-94611961D02*
X159723809Y-94707200D01*
X159723809Y-94707200D02*
X159580952Y-94754819D01*
X159580952Y-94754819D02*
X159485714Y-94754819D01*
X160866666Y-94754819D02*
X160295238Y-94754819D01*
X160580952Y-94754819D02*
X160580952Y-93754819D01*
X160580952Y-93754819D02*
X160485714Y-93897676D01*
X160485714Y-93897676D02*
X160390476Y-93992914D01*
X160390476Y-93992914D02*
X160295238Y-94040533D01*
X150982142Y-76229580D02*
X150934523Y-76277200D01*
X150934523Y-76277200D02*
X150791666Y-76324819D01*
X150791666Y-76324819D02*
X150696428Y-76324819D01*
X150696428Y-76324819D02*
X150553571Y-76277200D01*
X150553571Y-76277200D02*
X150458333Y-76181961D01*
X150458333Y-76181961D02*
X150410714Y-76086723D01*
X150410714Y-76086723D02*
X150363095Y-75896247D01*
X150363095Y-75896247D02*
X150363095Y-75753390D01*
X150363095Y-75753390D02*
X150410714Y-75562914D01*
X150410714Y-75562914D02*
X150458333Y-75467676D01*
X150458333Y-75467676D02*
X150553571Y-75372438D01*
X150553571Y-75372438D02*
X150696428Y-75324819D01*
X150696428Y-75324819D02*
X150791666Y-75324819D01*
X150791666Y-75324819D02*
X150934523Y-75372438D01*
X150934523Y-75372438D02*
X150982142Y-75420057D01*
X151363095Y-75420057D02*
X151410714Y-75372438D01*
X151410714Y-75372438D02*
X151505952Y-75324819D01*
X151505952Y-75324819D02*
X151744047Y-75324819D01*
X151744047Y-75324819D02*
X151839285Y-75372438D01*
X151839285Y-75372438D02*
X151886904Y-75420057D01*
X151886904Y-75420057D02*
X151934523Y-75515295D01*
X151934523Y-75515295D02*
X151934523Y-75610533D01*
X151934523Y-75610533D02*
X151886904Y-75753390D01*
X151886904Y-75753390D02*
X151315476Y-76324819D01*
X151315476Y-76324819D02*
X151934523Y-76324819D01*
X152315476Y-75420057D02*
X152363095Y-75372438D01*
X152363095Y-75372438D02*
X152458333Y-75324819D01*
X152458333Y-75324819D02*
X152696428Y-75324819D01*
X152696428Y-75324819D02*
X152791666Y-75372438D01*
X152791666Y-75372438D02*
X152839285Y-75420057D01*
X152839285Y-75420057D02*
X152886904Y-75515295D01*
X152886904Y-75515295D02*
X152886904Y-75610533D01*
X152886904Y-75610533D02*
X152839285Y-75753390D01*
X152839285Y-75753390D02*
X152267857Y-76324819D01*
X152267857Y-76324819D02*
X152886904Y-76324819D01*
X164607142Y-76624819D02*
X164273809Y-76148628D01*
X164035714Y-76624819D02*
X164035714Y-75624819D01*
X164035714Y-75624819D02*
X164416666Y-75624819D01*
X164416666Y-75624819D02*
X164511904Y-75672438D01*
X164511904Y-75672438D02*
X164559523Y-75720057D01*
X164559523Y-75720057D02*
X164607142Y-75815295D01*
X164607142Y-75815295D02*
X164607142Y-75958152D01*
X164607142Y-75958152D02*
X164559523Y-76053390D01*
X164559523Y-76053390D02*
X164511904Y-76101009D01*
X164511904Y-76101009D02*
X164416666Y-76148628D01*
X164416666Y-76148628D02*
X164035714Y-76148628D01*
X165559523Y-76624819D02*
X164988095Y-76624819D01*
X165273809Y-76624819D02*
X165273809Y-75624819D01*
X165273809Y-75624819D02*
X165178571Y-75767676D01*
X165178571Y-75767676D02*
X165083333Y-75862914D01*
X165083333Y-75862914D02*
X164988095Y-75910533D01*
X165892857Y-75624819D02*
X166559523Y-75624819D01*
X166559523Y-75624819D02*
X166130952Y-76624819D01*
X150857142Y-101354819D02*
X150523809Y-100878628D01*
X150285714Y-101354819D02*
X150285714Y-100354819D01*
X150285714Y-100354819D02*
X150666666Y-100354819D01*
X150666666Y-100354819D02*
X150761904Y-100402438D01*
X150761904Y-100402438D02*
X150809523Y-100450057D01*
X150809523Y-100450057D02*
X150857142Y-100545295D01*
X150857142Y-100545295D02*
X150857142Y-100688152D01*
X150857142Y-100688152D02*
X150809523Y-100783390D01*
X150809523Y-100783390D02*
X150761904Y-100831009D01*
X150761904Y-100831009D02*
X150666666Y-100878628D01*
X150666666Y-100878628D02*
X150285714Y-100878628D01*
X151238095Y-100450057D02*
X151285714Y-100402438D01*
X151285714Y-100402438D02*
X151380952Y-100354819D01*
X151380952Y-100354819D02*
X151619047Y-100354819D01*
X151619047Y-100354819D02*
X151714285Y-100402438D01*
X151714285Y-100402438D02*
X151761904Y-100450057D01*
X151761904Y-100450057D02*
X151809523Y-100545295D01*
X151809523Y-100545295D02*
X151809523Y-100640533D01*
X151809523Y-100640533D02*
X151761904Y-100783390D01*
X151761904Y-100783390D02*
X151190476Y-101354819D01*
X151190476Y-101354819D02*
X151809523Y-101354819D01*
X152761904Y-101354819D02*
X152190476Y-101354819D01*
X152476190Y-101354819D02*
X152476190Y-100354819D01*
X152476190Y-100354819D02*
X152380952Y-100497676D01*
X152380952Y-100497676D02*
X152285714Y-100592914D01*
X152285714Y-100592914D02*
X152190476Y-100640533D01*
X166361905Y-72104819D02*
X166361905Y-71104819D01*
X166361905Y-71104819D02*
X166600000Y-71104819D01*
X166600000Y-71104819D02*
X166742857Y-71152438D01*
X166742857Y-71152438D02*
X166838095Y-71247676D01*
X166838095Y-71247676D02*
X166885714Y-71342914D01*
X166885714Y-71342914D02*
X166933333Y-71533390D01*
X166933333Y-71533390D02*
X166933333Y-71676247D01*
X166933333Y-71676247D02*
X166885714Y-71866723D01*
X166885714Y-71866723D02*
X166838095Y-71961961D01*
X166838095Y-71961961D02*
X166742857Y-72057200D01*
X166742857Y-72057200D02*
X166600000Y-72104819D01*
X166600000Y-72104819D02*
X166361905Y-72104819D01*
X167266667Y-71104819D02*
X167885714Y-71104819D01*
X167885714Y-71104819D02*
X167552381Y-71485771D01*
X167552381Y-71485771D02*
X167695238Y-71485771D01*
X167695238Y-71485771D02*
X167790476Y-71533390D01*
X167790476Y-71533390D02*
X167838095Y-71581009D01*
X167838095Y-71581009D02*
X167885714Y-71676247D01*
X167885714Y-71676247D02*
X167885714Y-71914342D01*
X167885714Y-71914342D02*
X167838095Y-72009580D01*
X167838095Y-72009580D02*
X167790476Y-72057200D01*
X167790476Y-72057200D02*
X167695238Y-72104819D01*
X167695238Y-72104819D02*
X167409524Y-72104819D01*
X167409524Y-72104819D02*
X167314286Y-72057200D01*
X167314286Y-72057200D02*
X167266667Y-72009580D01*
X155107142Y-84749819D02*
X154773809Y-84273628D01*
X154535714Y-84749819D02*
X154535714Y-83749819D01*
X154535714Y-83749819D02*
X154916666Y-83749819D01*
X154916666Y-83749819D02*
X155011904Y-83797438D01*
X155011904Y-83797438D02*
X155059523Y-83845057D01*
X155059523Y-83845057D02*
X155107142Y-83940295D01*
X155107142Y-83940295D02*
X155107142Y-84083152D01*
X155107142Y-84083152D02*
X155059523Y-84178390D01*
X155059523Y-84178390D02*
X155011904Y-84226009D01*
X155011904Y-84226009D02*
X154916666Y-84273628D01*
X154916666Y-84273628D02*
X154535714Y-84273628D01*
X155488095Y-83845057D02*
X155535714Y-83797438D01*
X155535714Y-83797438D02*
X155630952Y-83749819D01*
X155630952Y-83749819D02*
X155869047Y-83749819D01*
X155869047Y-83749819D02*
X155964285Y-83797438D01*
X155964285Y-83797438D02*
X156011904Y-83845057D01*
X156011904Y-83845057D02*
X156059523Y-83940295D01*
X156059523Y-83940295D02*
X156059523Y-84035533D01*
X156059523Y-84035533D02*
X156011904Y-84178390D01*
X156011904Y-84178390D02*
X155440476Y-84749819D01*
X155440476Y-84749819D02*
X156059523Y-84749819D01*
X156964285Y-83749819D02*
X156488095Y-83749819D01*
X156488095Y-83749819D02*
X156440476Y-84226009D01*
X156440476Y-84226009D02*
X156488095Y-84178390D01*
X156488095Y-84178390D02*
X156583333Y-84130771D01*
X156583333Y-84130771D02*
X156821428Y-84130771D01*
X156821428Y-84130771D02*
X156916666Y-84178390D01*
X156916666Y-84178390D02*
X156964285Y-84226009D01*
X156964285Y-84226009D02*
X157011904Y-84321247D01*
X157011904Y-84321247D02*
X157011904Y-84559342D01*
X157011904Y-84559342D02*
X156964285Y-84654580D01*
X156964285Y-84654580D02*
X156916666Y-84702200D01*
X156916666Y-84702200D02*
X156821428Y-84749819D01*
X156821428Y-84749819D02*
X156583333Y-84749819D01*
X156583333Y-84749819D02*
X156488095Y-84702200D01*
X156488095Y-84702200D02*
X156440476Y-84654580D01*
X162807142Y-84924819D02*
X162473809Y-84448628D01*
X162235714Y-84924819D02*
X162235714Y-83924819D01*
X162235714Y-83924819D02*
X162616666Y-83924819D01*
X162616666Y-83924819D02*
X162711904Y-83972438D01*
X162711904Y-83972438D02*
X162759523Y-84020057D01*
X162759523Y-84020057D02*
X162807142Y-84115295D01*
X162807142Y-84115295D02*
X162807142Y-84258152D01*
X162807142Y-84258152D02*
X162759523Y-84353390D01*
X162759523Y-84353390D02*
X162711904Y-84401009D01*
X162711904Y-84401009D02*
X162616666Y-84448628D01*
X162616666Y-84448628D02*
X162235714Y-84448628D01*
X163188095Y-84020057D02*
X163235714Y-83972438D01*
X163235714Y-83972438D02*
X163330952Y-83924819D01*
X163330952Y-83924819D02*
X163569047Y-83924819D01*
X163569047Y-83924819D02*
X163664285Y-83972438D01*
X163664285Y-83972438D02*
X163711904Y-84020057D01*
X163711904Y-84020057D02*
X163759523Y-84115295D01*
X163759523Y-84115295D02*
X163759523Y-84210533D01*
X163759523Y-84210533D02*
X163711904Y-84353390D01*
X163711904Y-84353390D02*
X163140476Y-84924819D01*
X163140476Y-84924819D02*
X163759523Y-84924819D01*
X164616666Y-83924819D02*
X164426190Y-83924819D01*
X164426190Y-83924819D02*
X164330952Y-83972438D01*
X164330952Y-83972438D02*
X164283333Y-84020057D01*
X164283333Y-84020057D02*
X164188095Y-84162914D01*
X164188095Y-84162914D02*
X164140476Y-84353390D01*
X164140476Y-84353390D02*
X164140476Y-84734342D01*
X164140476Y-84734342D02*
X164188095Y-84829580D01*
X164188095Y-84829580D02*
X164235714Y-84877200D01*
X164235714Y-84877200D02*
X164330952Y-84924819D01*
X164330952Y-84924819D02*
X164521428Y-84924819D01*
X164521428Y-84924819D02*
X164616666Y-84877200D01*
X164616666Y-84877200D02*
X164664285Y-84829580D01*
X164664285Y-84829580D02*
X164711904Y-84734342D01*
X164711904Y-84734342D02*
X164711904Y-84496247D01*
X164711904Y-84496247D02*
X164664285Y-84401009D01*
X164664285Y-84401009D02*
X164616666Y-84353390D01*
X164616666Y-84353390D02*
X164521428Y-84305771D01*
X164521428Y-84305771D02*
X164330952Y-84305771D01*
X164330952Y-84305771D02*
X164235714Y-84353390D01*
X164235714Y-84353390D02*
X164188095Y-84401009D01*
X164188095Y-84401009D02*
X164140476Y-84496247D01*
X163466667Y-91507200D02*
X163609524Y-91554819D01*
X163609524Y-91554819D02*
X163847619Y-91554819D01*
X163847619Y-91554819D02*
X163942857Y-91507200D01*
X163942857Y-91507200D02*
X163990476Y-91459580D01*
X163990476Y-91459580D02*
X164038095Y-91364342D01*
X164038095Y-91364342D02*
X164038095Y-91269104D01*
X164038095Y-91269104D02*
X163990476Y-91173866D01*
X163990476Y-91173866D02*
X163942857Y-91126247D01*
X163942857Y-91126247D02*
X163847619Y-91078628D01*
X163847619Y-91078628D02*
X163657143Y-91031009D01*
X163657143Y-91031009D02*
X163561905Y-90983390D01*
X163561905Y-90983390D02*
X163514286Y-90935771D01*
X163514286Y-90935771D02*
X163466667Y-90840533D01*
X163466667Y-90840533D02*
X163466667Y-90745295D01*
X163466667Y-90745295D02*
X163514286Y-90650057D01*
X163514286Y-90650057D02*
X163561905Y-90602438D01*
X163561905Y-90602438D02*
X163657143Y-90554819D01*
X163657143Y-90554819D02*
X163895238Y-90554819D01*
X163895238Y-90554819D02*
X164038095Y-90602438D01*
X164371429Y-90554819D02*
X164609524Y-91554819D01*
X164609524Y-91554819D02*
X164800000Y-90840533D01*
X164800000Y-90840533D02*
X164990476Y-91554819D01*
X164990476Y-91554819D02*
X165228572Y-90554819D01*
X165561905Y-90650057D02*
X165609524Y-90602438D01*
X165609524Y-90602438D02*
X165704762Y-90554819D01*
X165704762Y-90554819D02*
X165942857Y-90554819D01*
X165942857Y-90554819D02*
X166038095Y-90602438D01*
X166038095Y-90602438D02*
X166085714Y-90650057D01*
X166085714Y-90650057D02*
X166133333Y-90745295D01*
X166133333Y-90745295D02*
X166133333Y-90840533D01*
X166133333Y-90840533D02*
X166085714Y-90983390D01*
X166085714Y-90983390D02*
X165514286Y-91554819D01*
X165514286Y-91554819D02*
X166133333Y-91554819D01*
X158449405Y-72524819D02*
X158449405Y-71524819D01*
X158449405Y-71524819D02*
X158687500Y-71524819D01*
X158687500Y-71524819D02*
X158830357Y-71572438D01*
X158830357Y-71572438D02*
X158925595Y-71667676D01*
X158925595Y-71667676D02*
X158973214Y-71762914D01*
X158973214Y-71762914D02*
X159020833Y-71953390D01*
X159020833Y-71953390D02*
X159020833Y-72096247D01*
X159020833Y-72096247D02*
X158973214Y-72286723D01*
X158973214Y-72286723D02*
X158925595Y-72381961D01*
X158925595Y-72381961D02*
X158830357Y-72477200D01*
X158830357Y-72477200D02*
X158687500Y-72524819D01*
X158687500Y-72524819D02*
X158449405Y-72524819D01*
X159973214Y-72524819D02*
X159401786Y-72524819D01*
X159687500Y-72524819D02*
X159687500Y-71524819D01*
X159687500Y-71524819D02*
X159592262Y-71667676D01*
X159592262Y-71667676D02*
X159497024Y-71762914D01*
X159497024Y-71762914D02*
X159401786Y-71810533D01*
X161057142Y-76424819D02*
X160723809Y-75948628D01*
X160485714Y-76424819D02*
X160485714Y-75424819D01*
X160485714Y-75424819D02*
X160866666Y-75424819D01*
X160866666Y-75424819D02*
X160961904Y-75472438D01*
X160961904Y-75472438D02*
X161009523Y-75520057D01*
X161009523Y-75520057D02*
X161057142Y-75615295D01*
X161057142Y-75615295D02*
X161057142Y-75758152D01*
X161057142Y-75758152D02*
X161009523Y-75853390D01*
X161009523Y-75853390D02*
X160961904Y-75901009D01*
X160961904Y-75901009D02*
X160866666Y-75948628D01*
X160866666Y-75948628D02*
X160485714Y-75948628D01*
X161438095Y-75520057D02*
X161485714Y-75472438D01*
X161485714Y-75472438D02*
X161580952Y-75424819D01*
X161580952Y-75424819D02*
X161819047Y-75424819D01*
X161819047Y-75424819D02*
X161914285Y-75472438D01*
X161914285Y-75472438D02*
X161961904Y-75520057D01*
X161961904Y-75520057D02*
X162009523Y-75615295D01*
X162009523Y-75615295D02*
X162009523Y-75710533D01*
X162009523Y-75710533D02*
X161961904Y-75853390D01*
X161961904Y-75853390D02*
X161390476Y-76424819D01*
X161390476Y-76424819D02*
X162009523Y-76424819D01*
X162866666Y-75758152D02*
X162866666Y-76424819D01*
X162628571Y-75377200D02*
X162390476Y-76091485D01*
X162390476Y-76091485D02*
X163009523Y-76091485D01*
%TO.C,D4*%
D11*
X162040000Y-72900000D02*
X162040000Y-74100000D01*
X164000000Y-72900000D02*
X162040000Y-72900000D01*
X164000000Y-74100000D02*
X162040000Y-74100000D01*
%TO.C,J3*%
X172920000Y-54500000D02*
X174300000Y-54500000D01*
X172920000Y-55880000D02*
X172920000Y-54500000D01*
X172920000Y-57150000D02*
X172920000Y-102980000D01*
X172920000Y-57150000D02*
X175680000Y-57150000D01*
X172920000Y-102980000D02*
X175680000Y-102980000D01*
X175680000Y-57150000D02*
X175680000Y-102980000D01*
%TO.C,R22*%
X167662742Y-102577500D02*
X168137258Y-102577500D01*
X167662742Y-103622500D02*
X168137258Y-103622500D01*
%TO.C,C19*%
X156309420Y-80690000D02*
X156590580Y-80690000D01*
X156309420Y-81710000D02*
X156590580Y-81710000D01*
%TO.C,C15*%
X151665580Y-85090000D02*
X151384420Y-85090000D01*
X151665580Y-86110000D02*
X151384420Y-86110000D01*
%TO.C,Q1*%
D12*
X150900000Y-97980000D02*
X150900000Y-97520000D01*
X151370000Y-96230000D02*
X152300000Y-96230000D01*
X151370000Y-99270000D02*
X152300000Y-99270000D01*
X152300000Y-96230000D02*
X152300000Y-97030000D01*
X152300000Y-98470000D02*
X152300000Y-99270000D01*
D13*
X149700000Y-96750000D02*
G75*
G02*
X149500000Y-96750000I-100000J0D01*
G01*
X149500000Y-96750000D02*
G75*
G02*
X149700000Y-96750000I100000J0D01*
G01*
%TO.C,D6*%
D11*
X150840000Y-73100000D02*
X150840000Y-74300000D01*
X152800000Y-73100000D02*
X150840000Y-73100000D01*
X152800000Y-74300000D02*
X150840000Y-74300000D01*
%TO.C,C9*%
X158384420Y-76790000D02*
X158665580Y-76790000D01*
X158384420Y-77810000D02*
X158665580Y-77810000D01*
%TO.C,C14*%
X167609420Y-85290000D02*
X167890580Y-85290000D01*
X167609420Y-86310000D02*
X167890580Y-86310000D01*
%TO.C,SW1*%
X151550000Y-87750000D02*
X157850000Y-87750000D01*
X151550000Y-88000000D02*
X151550000Y-87750000D01*
X151550000Y-92500000D02*
X151550000Y-89900000D01*
X151550000Y-94650000D02*
X151550000Y-94400000D01*
X157850000Y-87750000D02*
X157850000Y-88000000D01*
X157850000Y-89900000D02*
X157850000Y-92500000D01*
X157850000Y-94400000D02*
X157850000Y-94650000D01*
X157850000Y-94650000D02*
X151550000Y-94650000D01*
%TO.C,C21*%
X151959420Y-80890000D02*
X152240580Y-80890000D01*
X151959420Y-81910000D02*
X152240580Y-81910000D01*
%TO.C,D5*%
X153940000Y-73100000D02*
X153940000Y-74300000D01*
X155900000Y-73100000D02*
X153940000Y-73100000D01*
X155900000Y-74300000D02*
X153940000Y-74300000D01*
%TO.C,J2*%
X143920000Y-54440000D02*
X145300000Y-54440000D01*
X143920000Y-55820000D02*
X143920000Y-54440000D01*
X143920000Y-57090000D02*
X143920000Y-102920000D01*
X143920000Y-57090000D02*
X146680000Y-57090000D01*
X143920000Y-102920000D02*
X146680000Y-102920000D01*
X146680000Y-57090000D02*
X146680000Y-102920000D01*
%TO.C,U1*%
X150330000Y-43690000D02*
X150330000Y-49850000D01*
X150330000Y-43690000D02*
X168570000Y-43690000D01*
X150330000Y-68650000D02*
X150330000Y-69430000D01*
X150330000Y-69430000D02*
X151330000Y-69430000D01*
X168570000Y-43690000D02*
X168570000Y-50105000D01*
X168570000Y-68650000D02*
X168570000Y-69430000D01*
X168570000Y-69430000D02*
X167570000Y-69430000D01*
X150325000Y-50575000D02*
X149825000Y-50575000D01*
X150325000Y-50075000D01*
X150325000Y-50575000D01*
G36*
X150325000Y-50575000D02*
G01*
X149825000Y-50575000D01*
X150325000Y-50075000D01*
X150325000Y-50575000D01*
G37*
%TO.C,Q2*%
D12*
X166900000Y-98330000D02*
X166900000Y-97870000D01*
X167370000Y-96580000D02*
X168300000Y-96580000D01*
X167370000Y-99620000D02*
X168300000Y-99620000D01*
X168300000Y-96580000D02*
X168300000Y-97380000D01*
X168300000Y-98820000D02*
X168300000Y-99620000D01*
D13*
X165700000Y-97100000D02*
G75*
G02*
X165500000Y-97100000I-100000J0D01*
G01*
X165500000Y-97100000D02*
G75*
G02*
X165700000Y-97100000I100000J0D01*
G01*
%TO.C,C20*%
D11*
X154584420Y-76890000D02*
X154865580Y-76890000D01*
X154584420Y-77910000D02*
X154865580Y-77910000D01*
%TO.C,R18*%
X168137742Y-76977500D02*
X168612258Y-76977500D01*
X168137742Y-78022500D02*
X168612258Y-78022500D01*
%TO.C,R2*%
X160862742Y-81377500D02*
X161337258Y-81377500D01*
X160862742Y-82422500D02*
X161337258Y-82422500D01*
%TO.C,R11*%
X167537742Y-81377500D02*
X168012258Y-81377500D01*
X167537742Y-82422500D02*
X168012258Y-82422500D01*
%TO.C,R23*%
X164262742Y-81277500D02*
X164737258Y-81277500D01*
X164262742Y-82322500D02*
X164737258Y-82322500D01*
%TO.C,J1*%
X156330000Y-95830000D02*
X156330000Y-97900000D01*
X156330000Y-95830000D02*
X157200000Y-95830000D01*
X163200000Y-95830000D02*
X164070000Y-95830000D01*
X164070000Y-95830000D02*
X164070000Y-97900000D01*
X161500000Y-95490000D02*
X161160000Y-95020000D01*
X161840000Y-95020000D01*
X161500000Y-95490000D01*
G36*
X161500000Y-95490000D02*
G01*
X161160000Y-95020000D01*
X161840000Y-95020000D01*
X161500000Y-95490000D01*
G37*
%TO.C,C22*%
X151484420Y-76790000D02*
X151765580Y-76790000D01*
X151484420Y-77810000D02*
X151765580Y-77810000D01*
%TO.C,R17*%
X165012742Y-77077500D02*
X165487258Y-77077500D01*
X165012742Y-78122500D02*
X165487258Y-78122500D01*
%TO.C,R21*%
X151237258Y-101877500D02*
X150762742Y-101877500D01*
X151237258Y-102922500D02*
X150762742Y-102922500D01*
%TO.C,D3*%
X165490000Y-72650000D02*
X165490000Y-74350000D01*
X165490000Y-72650000D02*
X168150000Y-72650000D01*
X165490000Y-74350000D02*
X168150000Y-74350000D01*
%TO.C,R25*%
X155512742Y-85202500D02*
X155987258Y-85202500D01*
X155512742Y-86247500D02*
X155987258Y-86247500D01*
%TO.C,R26*%
X163212742Y-85377500D02*
X163687258Y-85377500D01*
X163212742Y-86422500D02*
X163687258Y-86422500D01*
%TO.C,SW2*%
X161650000Y-87650000D02*
X167950000Y-87650000D01*
X161650000Y-87900000D02*
X161650000Y-87650000D01*
X161650000Y-92400000D02*
X161650000Y-89800000D01*
X161650000Y-94550000D02*
X161650000Y-94300000D01*
X167950000Y-87650000D02*
X167950000Y-87900000D01*
X167950000Y-89800000D02*
X167950000Y-92400000D01*
X167950000Y-94300000D02*
X167950000Y-94550000D01*
X167950000Y-94550000D02*
X161650000Y-94550000D01*
%TO.C,D1*%
X157702500Y-72765000D02*
X157702500Y-74235000D01*
X157702500Y-74235000D02*
X159987500Y-74235000D01*
X159987500Y-72765000D02*
X157702500Y-72765000D01*
%TO.C,R24*%
X161462742Y-76877500D02*
X161937258Y-76877500D01*
X161462742Y-77922500D02*
X161937258Y-77922500D01*
%TD*%
M02*
