%TF.GenerationSoftware,KiCad,Pcbnew,10.0.3*%
%TF.CreationDate,2026-06-30T23:59:40+05:30*%
%TF.ProjectId,esp11,65737031-312e-46b6-9963-61645f706362,rev?*%
%TF.SameCoordinates,Original*%
%TF.FileFunction,Soldermask,Bot*%
%TF.FilePolarity,Negative*%
%FSLAX46Y46*%
G04 Gerber Fmt 4.6, Leading zero omitted, Abs format (unit mm)*
G04 Created by KiCad (PCBNEW 10.0.3) date 2026-06-30 23:59:40*
%MOMM*%
%LPD*%
G01*
G04 APERTURE LIST*
G04 Aperture macros list*
%AMRoundRect*
0 Rectangle with rounded corners*
0 $1 Rounding radius*
0 $2 $3 $4 $5 $6 $7 $8 $9 X,Y pos of 4 corners*
0 Add a 4 corners polygon primitive as box body*
4,1,4,$2,$3,$4,$5,$6,$7,$8,$9,$2,$3,0*
0 Add four circle primitives for the rounded corners*
1,1,$1+$1,$2,$3*
1,1,$1+$1,$4,$5*
1,1,$1+$1,$6,$7*
1,1,$1+$1,$8,$9*
0 Add four rect primitives between the rounded corners*
20,1,$1+$1,$2,$3,$4,$5,0*
20,1,$1+$1,$4,$5,$6,$7,0*
20,1,$1+$1,$6,$7,$8,$9,0*
20,1,$1+$1,$8,$9,$2,$3,0*%
G04 Aperture macros list end*
%ADD10R,1.700000X1.700000*%
%ADD11C,1.700000*%
%ADD12O,1.000000X1.900000*%
%ADD13O,1.050000X1.250000*%
%ADD14RoundRect,0.375000X0.625000X0.375000X-0.625000X0.375000X-0.625000X-0.375000X0.625000X-0.375000X0*%
%ADD15RoundRect,0.500000X0.500000X1.400000X-0.500000X1.400000X-0.500000X-1.400000X0.500000X-1.400000X0*%
%ADD16RoundRect,0.062500X0.062500X-0.337500X0.062500X0.337500X-0.062500X0.337500X-0.062500X-0.337500X0*%
%ADD17RoundRect,0.062500X0.337500X-0.062500X0.337500X0.062500X-0.337500X0.062500X-0.337500X-0.062500X0*%
%ADD18R,3.350000X3.350000*%
%ADD19RoundRect,0.225000X-0.250000X0.225000X-0.250000X-0.225000X0.250000X-0.225000X0.250000X0.225000X0*%
G04 APERTURE END LIST*
D10*
%TO.C,J3*%
X174300000Y-55880000D03*
D11*
X174300000Y-58420000D03*
X174300000Y-60960000D03*
X174300000Y-63500000D03*
X174300000Y-66040000D03*
X174300000Y-68580000D03*
X174300000Y-71120000D03*
X174300000Y-73660000D03*
X174300000Y-76200000D03*
X174300000Y-78740000D03*
X174300000Y-81280000D03*
X174300000Y-83820000D03*
X174300000Y-86360000D03*
X174300000Y-88900000D03*
X174300000Y-91440000D03*
X174300000Y-93980000D03*
X174300000Y-96520000D03*
X174300000Y-99060000D03*
X174300000Y-101600000D03*
%TD*%
D10*
%TO.C,J2*%
X145300000Y-55820000D03*
D11*
X145300000Y-58360000D03*
X145300000Y-60900000D03*
X145300000Y-63440000D03*
X145300000Y-65980000D03*
X145300000Y-68520000D03*
X145300000Y-71060000D03*
X145300000Y-73600000D03*
X145300000Y-76140000D03*
X145300000Y-78680000D03*
X145300000Y-81220000D03*
X145300000Y-83760000D03*
X145300000Y-86300000D03*
X145300000Y-88840000D03*
X145300000Y-91380000D03*
X145300000Y-93920000D03*
X145300000Y-96460000D03*
X145300000Y-99000000D03*
X145300000Y-101540000D03*
%TD*%
D12*
%TO.C,J1*%
X156025000Y-99100000D03*
D13*
X157975000Y-96100000D03*
X162425000Y-96100000D03*
D12*
X164375000Y-99100000D03*
%TD*%
D14*
%TO.C,U2*%
X163450000Y-76900000D03*
X163450000Y-79200000D03*
D15*
X157150000Y-79200000D03*
D14*
X163450000Y-81500000D03*
%TD*%
D16*
%TO.C,U3*%
X161700000Y-90150000D03*
X161200000Y-90150000D03*
X160700000Y-90150000D03*
X160200000Y-90150000D03*
X159700000Y-90150000D03*
X159200000Y-90150000D03*
X158700000Y-90150000D03*
D17*
X157750000Y-89200000D03*
X157750000Y-88700000D03*
X157750000Y-88200000D03*
X157750000Y-87700000D03*
X157750000Y-87200000D03*
X157750000Y-86700000D03*
X157750000Y-86200000D03*
D16*
X158700000Y-85250000D03*
X159200000Y-85250000D03*
X159700000Y-85250000D03*
X160200000Y-85250000D03*
X160700000Y-85250000D03*
X161200000Y-85250000D03*
X161700000Y-85250000D03*
D17*
X162650000Y-86200000D03*
X162650000Y-86700000D03*
X162650000Y-87200000D03*
X162650000Y-87700000D03*
X162650000Y-88200000D03*
X162650000Y-88700000D03*
X162650000Y-89200000D03*
D18*
X160200000Y-87700000D03*
%TD*%
D19*
%TO.C,C3*%
X166900000Y-75580000D03*
X166900000Y-77130000D03*
%TD*%
%TO.C,C1*%
X166300000Y-81225000D03*
X166300000Y-82775000D03*
%TD*%
M02*
