%TF.GenerationSoftware,KiCad,Pcbnew,10.0.3*%
%TF.CreationDate,2026-06-30T23:59:40+05:30*%
%TF.ProjectId,esp11,65737031-312e-46b6-9963-61645f706362,rev?*%
%TF.SameCoordinates,Original*%
%TF.FileFunction,Paste,Top*%
%TF.FilePolarity,Positive*%
%FSLAX46Y46*%
G04 Gerber Fmt 4.6, Leading zero omitted, Abs format (unit mm)*
G04 Created by KiCad (PCBNEW 10.0.3) date 2026-06-30 23:59:40*
%MOMM*%
%LPD*%
G01*
G04 APERTURE LIST*
G04 Aperture macros list*
%AMRoundRect*
0 Rectangle with rounded corners*
0 $1 Rounding radius*
0 $2 $3 $4 $5 $6 $7 $8 $9 X,Y pos of 4 corners*
0 Add a 4 corners polygon primitive as box body*
4,1,4,$2,$3,$4,$5,$6,$7,$8,$9,$2,$3,0*
0 Add four circle primitives for the rounded corners*
1,1,$1+$1,$2,$3*
1,1,$1+$1,$4,$5*
1,1,$1+$1,$6,$7*
1,1,$1+$1,$8,$9*
0 Add four rect primitives between the rounded corners*
20,1,$1+$1,$2,$3,$4,$5,0*
20,1,$1+$1,$4,$5,$6,$7,0*
20,1,$1+$1,$6,$7,$8,$9,0*
20,1,$1+$1,$8,$9,$2,$3,0*%
G04 Aperture macros list end*
%ADD10RoundRect,0.150000X0.150000X0.200000X-0.150000X0.200000X-0.150000X-0.200000X0.150000X-0.200000X0*%
%ADD11RoundRect,0.200000X-0.200000X-0.275000X0.200000X-0.275000X0.200000X0.275000X-0.200000X0.275000X0*%
%ADD12RoundRect,0.225000X-0.225000X-0.250000X0.225000X-0.250000X0.225000X0.250000X-0.225000X0.250000X0*%
%ADD13RoundRect,0.225000X0.225000X0.250000X-0.225000X0.250000X-0.225000X-0.250000X0.225000X-0.250000X0*%
%ADD14R,0.900000X0.800000*%
%ADD15R,1.550000X1.300000*%
%ADD16R,1.500000X0.900000*%
%ADD17R,0.900000X1.500000*%
%ADD18R,1.050000X1.050000*%
%ADD19R,0.300000X0.850000*%
%ADD20RoundRect,0.100000X-0.100000X-0.575000X0.100000X-0.575000X0.100000X0.575000X-0.100000X0.575000X0*%
%ADD21RoundRect,0.250000X-1.200000X-0.700000X1.200000X-0.700000X1.200000X0.700000X-1.200000X0.700000X0*%
%ADD22RoundRect,0.200000X0.200000X0.275000X-0.200000X0.275000X-0.200000X-0.275000X0.200000X-0.275000X0*%
%ADD23RoundRect,0.112500X-0.187500X-0.112500X0.187500X-0.112500X0.187500X0.112500X-0.187500X0.112500X0*%
%ADD24RoundRect,0.218750X-0.218750X-0.256250X0.218750X-0.256250X0.218750X0.256250X-0.218750X0.256250X0*%
G04 APERTURE END LIST*
D10*
%TO.C,D4*%
X162600000Y-73500000D03*
X164000000Y-73500000D03*
%TD*%
D11*
%TO.C,R22*%
X167075000Y-103100000D03*
X168725000Y-103100000D03*
%TD*%
D12*
%TO.C,C19*%
X155675000Y-81200000D03*
X157225000Y-81200000D03*
%TD*%
D13*
%TO.C,C15*%
X152300000Y-85600000D03*
X150750000Y-85600000D03*
%TD*%
D14*
%TO.C,Q1*%
X150600000Y-96800000D03*
X150600000Y-98700000D03*
X152600000Y-97750000D03*
%TD*%
D10*
%TO.C,D6*%
X151400000Y-73700000D03*
X152800000Y-73700000D03*
%TD*%
D12*
%TO.C,C9*%
X157750000Y-77300000D03*
X159300000Y-77300000D03*
%TD*%
%TO.C,C14*%
X166975000Y-85800000D03*
X168525000Y-85800000D03*
%TD*%
D15*
%TO.C,SW1*%
X150725000Y-88950000D03*
X158675000Y-88950000D03*
X150725000Y-93450000D03*
X158675000Y-93450000D03*
%TD*%
D12*
%TO.C,C21*%
X151325000Y-81400000D03*
X152875000Y-81400000D03*
%TD*%
D10*
%TO.C,D5*%
X154500000Y-73700000D03*
X155900000Y-73700000D03*
%TD*%
D16*
%TO.C,U1*%
X150700000Y-51300000D03*
X150700000Y-52570000D03*
X150700000Y-53840000D03*
X150700000Y-55110000D03*
X150700000Y-56380000D03*
X150700000Y-57650000D03*
X150700000Y-58920000D03*
X150700000Y-60190000D03*
X150700000Y-61460000D03*
X150700000Y-62730000D03*
X150700000Y-64000000D03*
X150700000Y-65270000D03*
X150700000Y-66540000D03*
X150700000Y-67810000D03*
D17*
X153740000Y-69060000D03*
X155010000Y-69060000D03*
X156280000Y-69060000D03*
X157550000Y-69060000D03*
X158820000Y-69060000D03*
X160090000Y-69060000D03*
X161360000Y-69060000D03*
X162630000Y-69060000D03*
X163900000Y-69060000D03*
X165170000Y-69060000D03*
D16*
X168200000Y-67810000D03*
X168200000Y-66540000D03*
X168200000Y-65270000D03*
X168200000Y-64000000D03*
X168200000Y-62730000D03*
X168200000Y-61460000D03*
X168200000Y-60190000D03*
X168200000Y-58920000D03*
X168200000Y-57650000D03*
X168200000Y-56380000D03*
X168200000Y-55110000D03*
X168200000Y-53840000D03*
X168200000Y-52570000D03*
X168200000Y-51300000D03*
D18*
X157245000Y-57115000D03*
X157245000Y-58640000D03*
X157245000Y-60165000D03*
X158770000Y-57115000D03*
X158770000Y-58640000D03*
X158770000Y-60165000D03*
X160295000Y-57115000D03*
X160295000Y-58640000D03*
X160295000Y-60165000D03*
%TD*%
D14*
%TO.C,Q2*%
X166600000Y-97150000D03*
X166600000Y-99050000D03*
X168600000Y-98100000D03*
%TD*%
D12*
%TO.C,C20*%
X153950000Y-77400000D03*
X155500000Y-77400000D03*
%TD*%
D11*
%TO.C,R18*%
X167550000Y-77500000D03*
X169200000Y-77500000D03*
%TD*%
%TO.C,R2*%
X160275000Y-81900000D03*
X161925000Y-81900000D03*
%TD*%
%TO.C,R11*%
X166950000Y-81900000D03*
X168600000Y-81900000D03*
%TD*%
%TO.C,R23*%
X163675000Y-81800000D03*
X165325000Y-81800000D03*
%TD*%
D19*
%TO.C,J1*%
X156700000Y-99100000D03*
X163700000Y-99100000D03*
D20*
X161500000Y-96425000D03*
X160850000Y-96425000D03*
X160200000Y-96425000D03*
X159550000Y-96425000D03*
X158900000Y-96425000D03*
D21*
X160200000Y-99100000D03*
%TD*%
D12*
%TO.C,C22*%
X150850000Y-77300000D03*
X152400000Y-77300000D03*
%TD*%
D11*
%TO.C,R17*%
X164425000Y-77600000D03*
X166075000Y-77600000D03*
%TD*%
D22*
%TO.C,R21*%
X151825000Y-102400000D03*
X150175000Y-102400000D03*
%TD*%
D23*
%TO.C,D3*%
X166050000Y-73500000D03*
X168150000Y-73500000D03*
%TD*%
D11*
%TO.C,R25*%
X154925000Y-85725000D03*
X156575000Y-85725000D03*
%TD*%
%TO.C,R26*%
X162625000Y-85900000D03*
X164275000Y-85900000D03*
%TD*%
D15*
%TO.C,SW2*%
X160825000Y-88850000D03*
X168775000Y-88850000D03*
X160825000Y-93350000D03*
X168775000Y-93350000D03*
%TD*%
D24*
%TO.C,D1*%
X158400000Y-73500000D03*
X159975000Y-73500000D03*
%TD*%
D11*
%TO.C,R24*%
X160875000Y-77400000D03*
X162525000Y-77400000D03*
%TD*%
M02*
