%TF.GenerationSoftware,KiCad,Pcbnew,10.0.3*%
%TF.CreationDate,2026-06-30T23:59:40+05:30*%
%TF.ProjectId,esp11,65737031-312e-46b6-9963-61645f706362,rev?*%
%TF.SameCoordinates,Original*%
%TF.FileFunction,Copper,L1,Top*%
%TF.FilePolarity,Positive*%
%FSLAX46Y46*%
G04 Gerber Fmt 4.6, Leading zero omitted, Abs format (unit mm)*
G04 Created by KiCad (PCBNEW 10.0.3) date 2026-06-30 23:59:40*
%MOMM*%
%LPD*%
G01*
G04 APERTURE LIST*
G04 Aperture macros list*
%AMRoundRect*
0 Rectangle with rounded corners*
0 $1 Rounding radius*
0 $2 $3 $4 $5 $6 $7 $8 $9 X,Y pos of 4 corners*
0 Add a 4 corners polygon primitive as box body*
4,1,4,$2,$3,$4,$5,$6,$7,$8,$9,$2,$3,0*
0 Add four circle primitives for the rounded corners*
1,1,$1+$1,$2,$3*
1,1,$1+$1,$4,$5*
1,1,$1+$1,$6,$7*
1,1,$1+$1,$8,$9*
0 Add four rect primitives between the rounded corners*
20,1,$1+$1,$2,$3,$4,$5,0*
20,1,$1+$1,$4,$5,$6,$7,0*
20,1,$1+$1,$6,$7,$8,$9,0*
20,1,$1+$1,$8,$9,$2,$3,0*%
G04 Aperture macros list end*
%TA.AperFunction,SMDPad,CuDef*%
%ADD10RoundRect,0.150000X0.150000X0.200000X-0.150000X0.200000X-0.150000X-0.200000X0.150000X-0.200000X0*%
%TD*%
%TA.AperFunction,ComponentPad*%
%ADD11R,1.700000X1.700000*%
%TD*%
%TA.AperFunction,ComponentPad*%
%ADD12C,1.700000*%
%TD*%
%TA.AperFunction,SMDPad,CuDef*%
%ADD13RoundRect,0.200000X-0.200000X-0.275000X0.200000X-0.275000X0.200000X0.275000X-0.200000X0.275000X0*%
%TD*%
%TA.AperFunction,SMDPad,CuDef*%
%ADD14RoundRect,0.225000X-0.225000X-0.250000X0.225000X-0.250000X0.225000X0.250000X-0.225000X0.250000X0*%
%TD*%
%TA.AperFunction,SMDPad,CuDef*%
%ADD15RoundRect,0.225000X0.225000X0.250000X-0.225000X0.250000X-0.225000X-0.250000X0.225000X-0.250000X0*%
%TD*%
%TA.AperFunction,SMDPad,CuDef*%
%ADD16R,0.900000X0.800000*%
%TD*%
%TA.AperFunction,SMDPad,CuDef*%
%ADD17R,1.550000X1.300000*%
%TD*%
%TA.AperFunction,SMDPad,CuDef*%
%ADD18R,1.500000X0.900000*%
%TD*%
%TA.AperFunction,SMDPad,CuDef*%
%ADD19R,0.900000X1.500000*%
%TD*%
%TA.AperFunction,SMDPad,CuDef*%
%ADD20R,1.050000X1.050000*%
%TD*%
%TA.AperFunction,HeatsinkPad*%
%ADD21C,0.600000*%
%TD*%
%TA.AperFunction,HeatsinkPad*%
%ADD22R,4.200000X4.200000*%
%TD*%
%TA.AperFunction,SMDPad,CuDef*%
%ADD23RoundRect,0.100000X-0.100000X-0.575000X0.100000X-0.575000X0.100000X0.575000X-0.100000X0.575000X0*%
%TD*%
%TA.AperFunction,ComponentPad*%
%ADD24O,1.000000X1.900000*%
%TD*%
%TA.AperFunction,SMDPad,CuDef*%
%ADD25R,0.875000X1.900000*%
%TD*%
%TA.AperFunction,ComponentPad*%
%ADD26O,1.050000X1.250000*%
%TD*%
%TA.AperFunction,SMDPad,CuDef*%
%ADD27RoundRect,0.250000X-1.200000X-0.700000X1.200000X-0.700000X1.200000X0.700000X-1.200000X0.700000X0*%
%TD*%
%TA.AperFunction,SMDPad,CuDef*%
%ADD28RoundRect,0.200000X0.200000X0.275000X-0.200000X0.275000X-0.200000X-0.275000X0.200000X-0.275000X0*%
%TD*%
%TA.AperFunction,SMDPad,CuDef*%
%ADD29RoundRect,0.112500X-0.187500X-0.112500X0.187500X-0.112500X0.187500X0.112500X-0.187500X0.112500X0*%
%TD*%
%TA.AperFunction,SMDPad,CuDef*%
%ADD30RoundRect,0.218750X-0.218750X-0.256250X0.218750X-0.256250X0.218750X0.256250X-0.218750X0.256250X0*%
%TD*%
%TA.AperFunction,ViaPad*%
%ADD31C,0.600000*%
%TD*%
%TA.AperFunction,Conductor*%
%ADD32C,0.200000*%
%TD*%
G04 APERTURE END LIST*
D10*
%TO.P,D4,1,A1_1*%
%TO.N,GND*%
X162600000Y-73500000D03*
%TO.P,D4,2,A2_2*%
%TO.N,/USB_DN*%
X164000000Y-73500000D03*
%TD*%
D11*
%TO.P,J3,1,Pin_1_1*%
%TO.N,GND*%
X174300000Y-55880000D03*
D12*
%TO.P,J3,2,Pin_2_2*%
%TO.N,/IO23*%
X174300000Y-58420000D03*
%TO.P,J3,3,Pin_3_3*%
%TO.N,/IO22*%
X174300000Y-60960000D03*
%TO.P,J3,4,Pin_4_4*%
%TO.N,/TXD0*%
X174300000Y-63500000D03*
%TO.P,J3,5,Pin_5_5*%
%TO.N,/RXD0*%
X174300000Y-66040000D03*
%TO.P,J3,6,Pin_6_6*%
%TO.N,/IO21*%
X174300000Y-68580000D03*
%TO.P,J3,7,Pin_7_7*%
%TO.N,GND*%
X174300000Y-71120000D03*
%TO.P,J3,8,Pin_8_8*%
%TO.N,/IO19*%
X174300000Y-73660000D03*
%TO.P,J3,9,Pin_9_9*%
%TO.N,/IO18*%
X174300000Y-76200000D03*
%TO.P,J3,10,Pin_10_10*%
%TO.N,/IO5*%
X174300000Y-78740000D03*
%TO.P,J3,11,Pin_11_11*%
%TO.N,/IO17*%
X174300000Y-81280000D03*
%TO.P,J3,12,Pin_12_12*%
%TO.N,/IO16*%
X174300000Y-83820000D03*
%TO.P,J3,13,Pin_13_13*%
%TO.N,/IO4*%
X174300000Y-86360000D03*
%TO.P,J3,14,Pin_14_14*%
%TO.N,/IO0*%
X174300000Y-88900000D03*
%TO.P,J3,15,Pin_15_15*%
%TO.N,/IO2*%
X174300000Y-91440000D03*
%TO.P,J3,16,Pin_16_16*%
%TO.N,/IO15*%
X174300000Y-93980000D03*
%TO.P,J3,17,Pin_17_17*%
%TO.N,/<NO NET>*%
X174300000Y-96520000D03*
%TO.P,J3,18,Pin_18_18*%
%TO.N,/SD0*%
X174300000Y-99060000D03*
%TO.P,J3,19,Pin_19_19*%
%TO.N,/CLK*%
X174300000Y-101600000D03*
%TD*%
D13*
%TO.P,R22,1*%
%TO.N,/RTS*%
X167075000Y-103100000D03*
%TO.P,R22,2*%
%TO.N,Net-(Q2-Pad1)*%
X168725000Y-103100000D03*
%TD*%
D14*
%TO.P,C19,1*%
%TO.N,GND*%
X155675000Y-81200000D03*
%TO.P,C19,2*%
%TO.N,/VDD33*%
X157225000Y-81200000D03*
%TD*%
D15*
%TO.P,C15,1*%
%TO.N,GND*%
X152300000Y-85600000D03*
%TO.P,C15,2*%
%TO.N,/ID0*%
X150750000Y-85600000D03*
%TD*%
D16*
%TO.P,Q1,1*%
%TO.N,Net-(Q1-Pad1)*%
X150600000Y-96800000D03*
%TO.P,Q1,2*%
%TO.N,/RTS*%
X150600000Y-98700000D03*
%TO.P,Q1,3*%
%TO.N,/EN*%
X152600000Y-97750000D03*
%TD*%
D10*
%TO.P,D6,1,A1_1*%
%TO.N,GND*%
X151400000Y-73700000D03*
%TO.P,D6,2,A2_2*%
%TO.N,/VBUS*%
X152800000Y-73700000D03*
%TD*%
D14*
%TO.P,C9,1*%
%TO.N,/EN*%
X157750000Y-77300000D03*
%TO.P,C9,2*%
%TO.N,GND*%
X159300000Y-77300000D03*
%TD*%
%TO.P,C14,1*%
%TO.N,GND*%
X166975000Y-85800000D03*
%TO.P,C14,2*%
%TO.N,/EN*%
X168525000Y-85800000D03*
%TD*%
D17*
%TO.P,SW1,1,1_1*%
%TO.N,GND*%
X150725000Y-88950000D03*
X158675000Y-88950000D03*
%TO.P,SW1,2,2_2*%
%TO.N,/ID0*%
X150725000Y-93450000D03*
X158675000Y-93450000D03*
%TD*%
D14*
%TO.P,C21,1*%
%TO.N,Net-(U1-VDD)*%
X151325000Y-81400000D03*
%TO.P,C21,2*%
%TO.N,GND*%
X152875000Y-81400000D03*
%TD*%
D10*
%TO.P,D5,1,A1_1*%
%TO.N,GND*%
X154500000Y-73700000D03*
%TO.P,D5,2,A2_2*%
%TO.N,/USB_DP*%
X155900000Y-73700000D03*
%TD*%
D11*
%TO.P,J2,1,Pin_1_1*%
%TO.N,/VDD33*%
X145300000Y-55820000D03*
D12*
%TO.P,J2,2,Pin_2_2*%
%TO.N,/EN*%
X145300000Y-58360000D03*
%TO.P,J2,3,Pin_3_3*%
%TO.N,/SENSOR_VP*%
X145300000Y-60900000D03*
%TO.P,J2,4,Pin_4_4*%
%TO.N,/SENSOR_VN*%
X145300000Y-63440000D03*
%TO.P,J2,5,Pin_5_5*%
%TO.N,/IO34*%
X145300000Y-65980000D03*
%TO.P,J2,6,Pin_6_6*%
%TO.N,/IO35*%
X145300000Y-68520000D03*
%TO.P,J2,7,Pin_7_7*%
%TO.N,/IO32*%
X145300000Y-71060000D03*
%TO.P,J2,8,Pin_8_8*%
%TO.N,/IO33*%
X145300000Y-73600000D03*
%TO.P,J2,9,Pin_9_9*%
%TO.N,/IO25*%
X145300000Y-76140000D03*
%TO.P,J2,10,Pin_10_10*%
%TO.N,/IO26*%
X145300000Y-78680000D03*
%TO.P,J2,11,Pin_11_11*%
%TO.N,/IO27*%
X145300000Y-81220000D03*
%TO.P,J2,12,Pin_12_12*%
%TO.N,/IO14*%
X145300000Y-83760000D03*
%TO.P,J2,13,Pin_13_13*%
%TO.N,/IO12*%
X145300000Y-86300000D03*
%TO.P,J2,14,Pin_14_14*%
%TO.N,GND*%
X145300000Y-88840000D03*
%TO.P,J2,15,Pin_15_15*%
%TO.N,/IO13*%
X145300000Y-91380000D03*
%TO.P,J2,16,Pin_16_16*%
%TO.N,/SD2*%
X145300000Y-93920000D03*
%TO.P,J2,17,Pin_17_17*%
%TO.N,/SD3*%
X145300000Y-96460000D03*
%TO.P,J2,18,Pin_18_18*%
%TO.N,/CMD*%
X145300000Y-99000000D03*
%TO.P,J2,19,Pin_19_19*%
%TO.N,/EXT_5V*%
X145300000Y-101540000D03*
%TD*%
D18*
%TO.P,U1,1,GND_1*%
%TO.N,GND*%
X150700000Y-51300000D03*
%TO.P,U1,2,VDD_2*%
%TO.N,Net-(U1-VDD)*%
X150700000Y-52570000D03*
%TO.P,U1,3,EN_3*%
%TO.N,/EN*%
X150700000Y-53840000D03*
%TO.P,U1,4,SENSOR_VP_4*%
%TO.N,/SENSOR_VP*%
X150700000Y-55110000D03*
%TO.P,U1,5,SENSOR_VN_5*%
%TO.N,/SENSOR_VN*%
X150700000Y-56380000D03*
%TO.P,U1,6,IO34_6*%
%TO.N,/IO34*%
X150700000Y-57650000D03*
%TO.P,U1,7,IO35_7*%
%TO.N,/IO35*%
X150700000Y-58920000D03*
%TO.P,U1,8,IO32_8*%
%TO.N,/IO32*%
X150700000Y-60190000D03*
%TO.P,U1,9,IO33_9*%
%TO.N,/IO33*%
X150700000Y-61460000D03*
%TO.P,U1,10,IO25_10*%
%TO.N,/IO25*%
X150700000Y-62730000D03*
%TO.P,U1,11,IO26_11*%
%TO.N,/IO26*%
X150700000Y-64000000D03*
%TO.P,U1,12,IO27_12*%
%TO.N,/IO27*%
X150700000Y-65270000D03*
%TO.P,U1,13,IO14_13*%
%TO.N,/IO14*%
X150700000Y-66540000D03*
%TO.P,U1,14,IO12_14*%
%TO.N,/IO12*%
X150700000Y-67810000D03*
D19*
%TO.P,U1,15,GND_15*%
%TO.N,GND*%
X153740000Y-69060000D03*
%TO.P,U1,16,IO13_16*%
%TO.N,/IO13*%
X155010000Y-69060000D03*
%TO.P,U1,17,SHD/SD2_17*%
%TO.N,/SD2*%
X156280000Y-69060000D03*
%TO.P,U1,18,SWP/SD3_18*%
%TO.N,/SD3*%
X157550000Y-69060000D03*
%TO.P,U1,19,SCS/CMD_19*%
%TO.N,/CMD*%
X158820000Y-69060000D03*
%TO.P,U1,20,SCK/CLK_20*%
%TO.N,/CLK*%
X160090000Y-69060000D03*
%TO.P,U1,21,SDO/SD0_21*%
%TO.N,/SD0*%
X161360000Y-69060000D03*
%TO.P,U1,22,SDI/SD1_22*%
%TO.N,/<NO NET>*%
X162630000Y-69060000D03*
%TO.P,U1,23,IO15_23*%
%TO.N,/IO15*%
X163900000Y-69060000D03*
%TO.P,U1,24,IO2_24*%
%TO.N,/ID2*%
X165170000Y-69060000D03*
D18*
%TO.P,U1,25,IO0_25*%
%TO.N,/ID0*%
X168200000Y-67810000D03*
%TO.P,U1,26,IO4_26*%
%TO.N,/IO4*%
X168200000Y-66540000D03*
%TO.P,U1,27,IO16_27*%
%TO.N,/IO16*%
X168200000Y-65270000D03*
%TO.P,U1,28,IO17_28*%
%TO.N,/IO17*%
X168200000Y-64000000D03*
%TO.P,U1,29,IO5_29*%
%TO.N,/IO5*%
X168200000Y-62730000D03*
%TO.P,U1,30,IO18_30*%
%TO.N,/IO18*%
X168200000Y-61460000D03*
%TO.P,U1,31,IO19_31*%
%TO.N,/IO19*%
X168200000Y-60190000D03*
%TO.P,U1,32,NC_32*%
%TO.N,unconnected-(U1-NC-Pad32)*%
X168200000Y-58920000D03*
%TO.P,U1,33,IO21_33*%
%TO.N,/IO21*%
X168200000Y-57650000D03*
%TO.P,U1,34,RXD0/IO3_34*%
%TO.N,/RXD0*%
X168200000Y-56380000D03*
%TO.P,U1,35,TXD0/IO1_35*%
%TO.N,/TXD0*%
X168200000Y-55110000D03*
%TO.P,U1,36,IO22_36*%
%TO.N,/IO22*%
X168200000Y-53840000D03*
%TO.P,U1,37,IO23_37*%
%TO.N,/IO23*%
X168200000Y-52570000D03*
%TO.P,U1,38,GND_38*%
%TO.N,GND*%
X168200000Y-51300000D03*
D20*
%TO.P,U1,39,GND_39*%
X157245000Y-57115000D03*
D21*
X157245000Y-57877500D03*
D20*
X157245000Y-58640000D03*
D21*
X157245000Y-59402500D03*
D20*
X157245000Y-60165000D03*
D21*
X158007500Y-57115000D03*
X158007500Y-58640000D03*
X158007500Y-60165000D03*
D20*
X158770000Y-57115000D03*
D21*
X158770000Y-57877500D03*
D20*
X158770000Y-58640000D03*
D22*
X158770000Y-58640000D03*
D21*
X158770000Y-59402500D03*
D20*
X158770000Y-60165000D03*
D21*
X159532500Y-57115000D03*
X159532500Y-58640000D03*
X159532500Y-60165000D03*
D20*
X160295000Y-57115000D03*
D21*
X160295000Y-57877500D03*
D20*
X160295000Y-58640000D03*
D21*
X160295000Y-59402500D03*
D20*
X160295000Y-60165000D03*
%TD*%
D16*
%TO.P,Q2,1*%
%TO.N,Net-(Q2-Pad1)*%
X166600000Y-97150000D03*
%TO.P,Q2,2*%
%TO.N,/ID0*%
X166600000Y-99050000D03*
%TO.P,Q2,3*%
%TO.N,/DTR*%
X168600000Y-98100000D03*
%TD*%
D14*
%TO.P,C20,1*%
%TO.N,GND*%
X153950000Y-77400000D03*
%TO.P,C20,2*%
%TO.N,/VDD33*%
X155500000Y-77400000D03*
%TD*%
D13*
%TO.P,R18,1*%
%TO.N,/RXDO*%
X167550000Y-77500000D03*
%TO.P,R18,2*%
%TO.N,/TX0*%
X169200000Y-77500000D03*
%TD*%
%TO.P,R2,1*%
%TO.N,/EXT_5V*%
X160275000Y-81900000D03*
%TO.P,R2,2*%
%TO.N,Net-(D1-A)*%
X161925000Y-81900000D03*
%TD*%
%TO.P,R11,1*%
%TO.N,/VDD33*%
X166950000Y-81900000D03*
%TO.P,R11,2*%
%TO.N,/EN*%
X168600000Y-81900000D03*
%TD*%
%TO.P,R23,1*%
%TO.N,Net-(U3-~{SUSPEND})*%
X163675000Y-81800000D03*
%TO.P,R23,2*%
%TO.N,GND*%
X165325000Y-81800000D03*
%TD*%
D23*
%TO.P,J1,1,VBUS_1*%
%TO.N,/VBUS*%
X161500000Y-96425000D03*
%TO.P,J1,2,D-_2*%
%TO.N,/USB_DN*%
X160850000Y-96425000D03*
%TO.P,J1,3,D+_3*%
%TO.N,/USB_DP*%
X160200000Y-96425000D03*
%TO.P,J1,4,ID_4*%
%TO.N,unconnected-(J1-ID-Pad4)*%
X159550000Y-96425000D03*
%TO.P,J1,5,GND_5*%
%TO.N,GND*%
X158900000Y-96425000D03*
D24*
%TO.P,J1,SH,Shield_SH*%
X156025000Y-99100000D03*
D25*
X156462500Y-99100000D03*
D26*
X157975000Y-96100000D03*
D27*
X160200000Y-99100000D03*
D26*
X162425000Y-96100000D03*
D25*
X163937500Y-99100000D03*
D24*
X164375000Y-99100000D03*
%TD*%
D14*
%TO.P,C22,1*%
%TO.N,Net-(U1-VDD)*%
X150850000Y-77300000D03*
%TO.P,C22,2*%
%TO.N,GND*%
X152400000Y-77300000D03*
%TD*%
D13*
%TO.P,R17,1*%
%TO.N,/TXD0*%
X164425000Y-77600000D03*
%TO.P,R17,2*%
%TO.N,/RX0*%
X166075000Y-77600000D03*
%TD*%
D28*
%TO.P,R21,1*%
%TO.N,/DTR*%
X151825000Y-102400000D03*
%TO.P,R21,2*%
%TO.N,Net-(Q1-Pad1)*%
X150175000Y-102400000D03*
%TD*%
D29*
%TO.P,D3,1,K_1*%
%TO.N,/EXT_5V*%
X166050000Y-73500000D03*
%TO.P,D3,2,A_2*%
%TO.N,/VBUS*%
X168150000Y-73500000D03*
%TD*%
D13*
%TO.P,R25,1*%
%TO.N,/VBUS*%
X154925000Y-85725000D03*
%TO.P,R25,2*%
%TO.N,Net-(U3-VBUS)*%
X156575000Y-85725000D03*
%TD*%
%TO.P,R26,1*%
%TO.N,Net-(U3-VBUS)*%
X162625000Y-85900000D03*
%TO.P,R26,2*%
%TO.N,GND*%
X164275000Y-85900000D03*
%TD*%
D17*
%TO.P,SW2,1,1_1*%
%TO.N,GND*%
X160825000Y-88850000D03*
X168775000Y-88850000D03*
%TO.P,SW2,2,2_2*%
%TO.N,/EN*%
X160825000Y-93350000D03*
X168775000Y-93350000D03*
%TD*%
D30*
%TO.P,D1,1,K_1*%
%TO.N,GND*%
X158400000Y-73500000D03*
%TO.P,D1,2,A_2*%
%TO.N,Net-(D1-A)*%
X159975000Y-73500000D03*
%TD*%
D13*
%TO.P,R24,1*%
%TO.N,/VDD33*%
X160875000Y-77400000D03*
%TO.P,R24,2*%
%TO.N,Net-(U3-~{RST})*%
X162525000Y-77400000D03*
%TD*%
D31*
%TO.N,GND*%
X165150000Y-80825000D03*
X163000000Y-75200000D03*
X154800000Y-72700000D03*
X159150000Y-88307108D03*
X151600000Y-69600000D03*
X160249231Y-87667179D03*
X147850000Y-88137263D03*
X153000000Y-72000000D03*
%TO.N,/USB_DN*%
X160700000Y-95300000D03*
X171200000Y-86300000D03*
X165200000Y-73400000D03*
X155900000Y-90700000D03*
%TO.N,/TXD0*%
X167300000Y-73700000D03*
%TO.N,/RTS*%
X157138235Y-94138235D03*
X166564682Y-95084864D03*
X168100000Y-95300000D03*
%TO.N,/VDD33*%
X159375000Y-81703060D03*
X154200000Y-88350000D03*
X161510916Y-79562386D03*
X156100000Y-82600000D03*
X159375000Y-81703060D03*
X158650000Y-80400000D03*
%TO.N,/ID0*%
X150700000Y-91600000D03*
X150000000Y-86000000D03*
X168200000Y-67810000D03*
%TO.N,/EN*%
X156343113Y-94049999D03*
X162800000Y-92400000D03*
X158500000Y-75800000D03*
X163200000Y-95300000D03*
X165049160Y-97448914D03*
%TO.N,Net-(U1-VDD)*%
X148800000Y-53000000D03*
X151600000Y-76100000D03*
%TO.N,/USB_DP*%
X158800000Y-91900000D03*
%TO.N,/EXT_5V*%
X160286094Y-81911094D03*
X166800000Y-79500000D03*
%TO.N,/DTR*%
X160700000Y-104500000D03*
X167300000Y-95400000D03*
%TO.N,/TX0*%
X169500000Y-79800000D03*
X167000000Y-89800000D03*
X163748527Y-89450000D03*
%TO.N,Net-(U3-~{SUSPEND})*%
X161211765Y-84188235D03*
%TO.N,/RX0*%
X169300000Y-85000000D03*
X165000000Y-89500000D03*
X165100000Y-88100000D03*
%TO.N,Net-(U3-VBUS)*%
X154800000Y-87500000D03*
X157100000Y-83800000D03*
X160300000Y-83100000D03*
%TO.N,Net-(U3-~{RST})*%
X157700000Y-82300000D03*
X155900000Y-83800000D03*
X161268491Y-78800000D03*
%TD*%
%TO.N,GND*%
D32*
X159600000Y-74275000D02*
X159600000Y-77325000D01*
X154500000Y-73000000D02*
X154800000Y-72700000D01*
X166112352Y-81000000D02*
X166387352Y-80725000D01*
X166110000Y-51300000D02*
X168200000Y-51300000D01*
X153225000Y-77400000D02*
X154225000Y-78400000D01*
X151400000Y-73700000D02*
X153000000Y-72100000D01*
X158675000Y-88950000D02*
X150725000Y-88950000D01*
X160295000Y-57115000D02*
X166110000Y-51300000D01*
X154500000Y-76000000D02*
X153100000Y-77400000D01*
X153000000Y-72100000D02*
X153000000Y-72000000D01*
X162600000Y-74800000D02*
X163000000Y-75200000D01*
X149650000Y-75967518D02*
X150050000Y-75567518D01*
X157975000Y-96100000D02*
X158575000Y-96100000D01*
X159600000Y-77325000D02*
X159325000Y-77600000D01*
X174300000Y-55880000D02*
X169720000Y-51300000D01*
X154325000Y-78500000D02*
X154225000Y-78400000D01*
X165225000Y-80900000D02*
X165800000Y-80900000D01*
X159175000Y-74275000D02*
X159600000Y-74275000D01*
X157975000Y-96100000D02*
X157975000Y-97150000D01*
X154500000Y-73700000D02*
X154500000Y-76000000D01*
X151430000Y-51300000D02*
X150700000Y-51300000D01*
X164632842Y-90900000D02*
X166465686Y-90900000D01*
X165325000Y-81000000D02*
X165150000Y-80825000D01*
X157245000Y-57115000D02*
X151430000Y-51300000D01*
X158900000Y-97800000D02*
X158900000Y-96425000D01*
X153100000Y-77400000D02*
X152850000Y-77400000D01*
X162425000Y-96100000D02*
X162425000Y-96875000D01*
X157975000Y-97150000D02*
X156025000Y-99100000D01*
X152875000Y-81400000D02*
X152875000Y-80655000D01*
X166465686Y-90900000D02*
X166965686Y-90400000D01*
X153030000Y-80500000D02*
X154975000Y-80500000D01*
X162600000Y-73500000D02*
X162600000Y-74800000D01*
X165800000Y-80900000D02*
X165900000Y-81000000D01*
X165325000Y-81800000D02*
X165325000Y-81000000D01*
X163937500Y-97612500D02*
X162425000Y-96100000D01*
X160825000Y-88242948D02*
X160249231Y-87667179D01*
X158675000Y-88782108D02*
X159150000Y-88307108D01*
X151600000Y-69600000D02*
X153200000Y-69600000D01*
X163937500Y-99100000D02*
X163937500Y-97612500D01*
X153950000Y-77400000D02*
X153100000Y-77400000D01*
X153740000Y-69060000D02*
X153740000Y-63670000D01*
X152875000Y-80655000D02*
X153030000Y-80500000D01*
X167248529Y-90400000D02*
X167600000Y-90048529D01*
X160825000Y-88850000D02*
X160825000Y-88242948D01*
X149300000Y-78291833D02*
X149650000Y-77941832D01*
X163499998Y-90050000D02*
X163782841Y-90050000D01*
X162425000Y-96875000D02*
X160200000Y-99100000D01*
X147850000Y-88137263D02*
X148662737Y-88950000D01*
X161775000Y-89800000D02*
X163249998Y-89800000D01*
X166965686Y-90400000D02*
X167248529Y-90400000D01*
X148662737Y-88950000D02*
X150725000Y-88950000D01*
X158575000Y-96100000D02*
X158900000Y-96425000D01*
X152925000Y-86200000D02*
X149300000Y-82575000D01*
X159175000Y-74275000D02*
X161825000Y-74275000D01*
X165150000Y-80825000D02*
X165225000Y-80900000D01*
X164375000Y-85800000D02*
X164275000Y-85900000D01*
X166387352Y-80725000D02*
X167212648Y-80725000D01*
X165900000Y-81000000D02*
X166112352Y-81000000D01*
X152850000Y-77400000D02*
X153225000Y-77400000D01*
X158675000Y-88950000D02*
X158675000Y-88782108D01*
X150050000Y-75567518D02*
X150050000Y-75050000D01*
X153200000Y-69600000D02*
X153740000Y-69060000D01*
X158400000Y-73500000D02*
X159175000Y-74275000D01*
X150725000Y-88950000D02*
X152925000Y-86750000D01*
X161825000Y-74275000D02*
X162600000Y-73500000D01*
X160825000Y-88850000D02*
X161775000Y-89800000D01*
X149300000Y-82575000D02*
X149300000Y-78291833D01*
X167600000Y-90048529D02*
X167600000Y-89800000D01*
X167600000Y-89800000D02*
X167825000Y-89800000D01*
X150050000Y-75050000D02*
X151400000Y-73700000D01*
X167212648Y-80725000D02*
X167900000Y-81412352D01*
X159325000Y-77600000D02*
X158950000Y-77600000D01*
X160200000Y-99100000D02*
X158900000Y-97800000D01*
X163249998Y-89800000D02*
X163499998Y-90050000D01*
X154975000Y-80500000D02*
X155675000Y-81200000D01*
X166975000Y-85800000D02*
X164375000Y-85800000D01*
X163782841Y-90050000D02*
X164632842Y-90900000D01*
X167900000Y-81412352D02*
X167900000Y-84875000D01*
X154500000Y-73700000D02*
X154500000Y-73000000D01*
X167900000Y-84875000D02*
X166975000Y-85800000D01*
X167825000Y-89800000D02*
X168775000Y-88850000D01*
X154425000Y-79105000D02*
X153030000Y-80500000D01*
X149650000Y-77941832D02*
X149650000Y-75967518D01*
X152150000Y-77400000D02*
X152850000Y-77400000D01*
X154425000Y-78500000D02*
X154425000Y-79105000D01*
X152925000Y-86750000D02*
X152925000Y-86200000D01*
X153740000Y-63670000D02*
X157245000Y-60165000D01*
X169720000Y-51300000D02*
X168200000Y-51300000D01*
%TO.N,/USB_DN*%
X165200000Y-73400000D02*
X164100000Y-73400000D01*
X147900000Y-93017057D02*
X147900000Y-101712648D01*
X169173654Y-105100000D02*
X171200000Y-103073654D01*
X155900000Y-90700000D02*
X150217057Y-90700000D01*
X150217057Y-90700000D02*
X147900000Y-93017057D01*
X171200000Y-103073654D02*
X171200000Y-86300000D01*
X160850000Y-95450000D02*
X160700000Y-95300000D01*
X147900000Y-101712648D02*
X151287352Y-105100000D01*
X164100000Y-73400000D02*
X164000000Y-73500000D01*
X151287352Y-105100000D02*
X169173654Y-105100000D01*
X160850000Y-96425000D02*
X160850000Y-95450000D01*
%TO.N,/IO23*%
X174300000Y-58420000D02*
X174300000Y-58190000D01*
X174300000Y-58190000D02*
X168680000Y-52570000D01*
X168680000Y-52570000D02*
X168200000Y-52570000D01*
%TO.N,/IO22*%
X174300000Y-60960000D02*
X173150000Y-59810000D01*
X173150000Y-57850000D02*
X173200000Y-57800000D01*
X169240000Y-53840000D02*
X168200000Y-53840000D01*
X173150000Y-59810000D02*
X173150000Y-57850000D01*
X173200000Y-57800000D02*
X169240000Y-53840000D01*
%TO.N,/TXD0*%
X172750000Y-61950000D02*
X172750000Y-58200000D01*
X164425000Y-77600000D02*
X164425000Y-76575000D01*
X164425000Y-76575000D02*
X167300000Y-73700000D01*
X172750000Y-58200000D02*
X169660000Y-55110000D01*
X174300000Y-63500000D02*
X172750000Y-61950000D01*
X169660000Y-55110000D02*
X168200000Y-55110000D01*
%TO.N,/RXD0*%
X172350000Y-58565686D02*
X170164314Y-56380000D01*
X174300000Y-66040000D02*
X172350000Y-64090000D01*
X172350000Y-64090000D02*
X172350000Y-58565686D01*
X170164314Y-56380000D02*
X168200000Y-56380000D01*
%TO.N,/IO21*%
X171900000Y-58900000D02*
X171900000Y-66180000D01*
X168200000Y-57650000D02*
X170650000Y-57650000D01*
X170650000Y-57650000D02*
X171900000Y-58900000D01*
X171900000Y-66180000D02*
X174300000Y-68580000D01*
%TO.N,/IO19*%
X174300000Y-73660000D02*
X175450000Y-72510000D01*
X173823654Y-69730000D02*
X171500000Y-67406346D01*
X174536346Y-69730000D02*
X173823654Y-69730000D01*
X171500000Y-67406346D02*
X171500000Y-61300000D01*
X175450000Y-70643654D02*
X174536346Y-69730000D01*
X171500000Y-61300000D02*
X170390000Y-60190000D01*
X175450000Y-72510000D02*
X175450000Y-70643654D01*
X170390000Y-60190000D02*
X168200000Y-60190000D01*
%TO.N,/IO18*%
X173150000Y-70643654D02*
X173663654Y-70130000D01*
X170360000Y-61460000D02*
X168200000Y-61460000D01*
X174100000Y-72270000D02*
X173823654Y-72270000D01*
X173150000Y-71596346D02*
X173150000Y-70643654D01*
X174300000Y-76200000D02*
X174100000Y-76000000D01*
X171100000Y-62200000D02*
X170360000Y-61460000D01*
X174100000Y-72510000D02*
X174100000Y-72270000D01*
X173150000Y-73183654D02*
X173823654Y-72510000D01*
X174100000Y-74810000D02*
X173823654Y-74810000D01*
X174100000Y-76000000D02*
X174100000Y-74810000D01*
X173823654Y-72510000D02*
X174100000Y-72510000D01*
X173663654Y-70130000D02*
X173657968Y-70130000D01*
X173823654Y-72270000D02*
X173150000Y-71596346D01*
X173150000Y-74136346D02*
X173150000Y-73183654D01*
X171100000Y-67572031D02*
X171100000Y-62200000D01*
X173657968Y-70130000D02*
X171100000Y-67572031D01*
X173823654Y-74810000D02*
X173150000Y-74136346D01*
%TO.N,/IO5*%
X172750000Y-71762031D02*
X172750000Y-70477968D01*
X173150000Y-76676346D02*
X173150000Y-75723654D01*
X173500000Y-75052032D02*
X172750000Y-74302031D01*
X172750000Y-74302031D02*
X172750000Y-73017968D01*
X173095125Y-70132843D02*
X170700000Y-67737716D01*
X170700000Y-64280000D02*
X169150000Y-62730000D01*
X172750000Y-70477968D02*
X173095125Y-70132843D01*
X172750000Y-73017968D02*
X173377968Y-72390000D01*
X173150000Y-75723654D02*
X173500000Y-75373654D01*
X173377968Y-72390000D02*
X172750000Y-71762031D01*
X173500000Y-77026346D02*
X173150000Y-76676346D01*
X170700000Y-67737716D02*
X170700000Y-64280000D01*
X173500000Y-77940000D02*
X173500000Y-77026346D01*
X174300000Y-78740000D02*
X173500000Y-77940000D01*
X173500000Y-75373654D02*
X173500000Y-75052032D01*
X169150000Y-62730000D02*
X168200000Y-62730000D01*
%TO.N,/IO17*%
X173300000Y-79366346D02*
X173300000Y-80280000D01*
X173095125Y-75212843D02*
X172750000Y-75557968D01*
X173300000Y-80280000D02*
X174300000Y-81280000D01*
X172529439Y-70132843D02*
X172350000Y-70312283D01*
X172350000Y-71927716D02*
X172812283Y-72389999D01*
X173203984Y-78209670D02*
X173150000Y-78263654D01*
X168200000Y-64000000D02*
X169150000Y-64000000D01*
X170300000Y-67903402D02*
X172529439Y-70132843D01*
X173100000Y-78105686D02*
X173203984Y-78209670D01*
X169150000Y-64000000D02*
X170300000Y-65150000D01*
X172350000Y-72852282D02*
X172350000Y-74467717D01*
X172750000Y-75557968D02*
X172750000Y-76842032D01*
X172350000Y-70312283D02*
X172350000Y-71927716D01*
X170300000Y-65150000D02*
X170300000Y-67903402D01*
X173100000Y-77192032D02*
X173100000Y-78105686D01*
X172750000Y-76842032D02*
X173100000Y-77192032D01*
X172812283Y-72389999D02*
X172350000Y-72852282D01*
X172350000Y-74467717D02*
X173095125Y-75212843D01*
X173150000Y-79216346D02*
X173300000Y-79366346D01*
X173150000Y-78263654D02*
X173150000Y-79216346D01*
%TO.N,/IO16*%
X174800000Y-83320000D02*
X174800000Y-82406346D01*
X172350000Y-75392282D02*
X172529439Y-75212843D01*
X174300000Y-83820000D02*
X174800000Y-83320000D01*
X173203984Y-80749670D02*
X172900000Y-80445685D01*
X173150000Y-81756346D02*
X173150000Y-80803654D01*
X172700000Y-78271371D02*
X172700000Y-77357718D01*
X169900000Y-66020000D02*
X169150000Y-65270000D01*
X173823654Y-82430000D02*
X173150000Y-81756346D01*
X172750000Y-79382031D02*
X172750000Y-78321372D01*
X171949999Y-70146598D02*
X171963754Y-70132843D01*
X171950000Y-72093401D02*
X171949999Y-70146598D01*
X174776346Y-82430000D02*
X173823654Y-82430000D01*
X172900000Y-80445685D02*
X172900000Y-79532032D01*
X171950000Y-72686596D02*
X172246597Y-72389999D01*
X172529439Y-75212843D02*
X171950000Y-74633402D01*
X171950000Y-74633402D02*
X171950000Y-72686596D01*
X172350000Y-77007717D02*
X172350000Y-75392282D01*
X169900000Y-68069087D02*
X169900000Y-66020000D01*
X172900000Y-79532032D02*
X172750000Y-79382031D01*
X174800000Y-82406346D02*
X174776346Y-82430000D01*
X172750000Y-78321372D02*
X172700000Y-78271371D01*
X173150000Y-80803654D02*
X173203984Y-80749670D01*
X171963754Y-70132843D02*
X169900000Y-68069087D01*
X172246597Y-72389999D02*
X171950000Y-72093401D01*
X169150000Y-65270000D02*
X168200000Y-65270000D01*
X172700000Y-77357718D02*
X172350000Y-77007717D01*
%TO.N,/IO4*%
X172750000Y-80861370D02*
X172500000Y-80611370D01*
X172299998Y-78437053D02*
X172299999Y-77523402D01*
X173663654Y-82830000D02*
X173657968Y-82830000D01*
X174300000Y-86360000D02*
X175100000Y-85560000D01*
X172500000Y-80611370D02*
X172500000Y-79697717D01*
X172500000Y-79697717D02*
X172350000Y-79547716D01*
X173150000Y-84296346D02*
X173150000Y-83343654D01*
X169500000Y-67220000D02*
X168820000Y-66540000D01*
X172750000Y-81922031D02*
X172750000Y-80861370D01*
X171950000Y-77173402D02*
X171950000Y-75226596D01*
X171963754Y-75212842D02*
X171550000Y-74799087D01*
X171680912Y-72389998D02*
X171550000Y-72259086D01*
X173657968Y-82830000D02*
X172750000Y-81922031D01*
X171950000Y-75226596D02*
X171963754Y-75212842D01*
X173823654Y-84970000D02*
X173150000Y-84296346D01*
X173150000Y-83343654D02*
X173663654Y-82830000D01*
X172299999Y-77523402D02*
X171950000Y-77173402D01*
X172350000Y-78487056D02*
X172299998Y-78437053D01*
X171550000Y-72520910D02*
X171680912Y-72389998D01*
X171550000Y-72259086D02*
X171549999Y-70284774D01*
X174776346Y-84970000D02*
X173823654Y-84970000D01*
X175100000Y-85560000D02*
X175100000Y-84646346D01*
X172350000Y-79547716D02*
X172350000Y-78487056D01*
X171550000Y-74799087D02*
X171550000Y-72520910D01*
X175100000Y-84646346D02*
X174776346Y-84970000D01*
X171549999Y-70284774D02*
X169500000Y-68234772D01*
X168820000Y-66540000D02*
X168200000Y-66540000D01*
X169500000Y-68234772D02*
X169500000Y-67220000D01*
%TO.N,/IO15*%
X175450000Y-92830000D02*
X174300000Y-93980000D01*
X175450000Y-88350000D02*
X175450000Y-92830000D01*
X173823654Y-87510000D02*
X174610000Y-87510000D01*
X165920000Y-70110000D02*
X165920000Y-69220000D01*
X171150000Y-74964772D02*
X171550000Y-75364773D01*
X173657968Y-85370000D02*
X173663654Y-85370000D01*
X171950000Y-78652740D02*
X171950000Y-79713401D01*
X164420000Y-69060000D02*
X164420000Y-70110000D01*
X172100000Y-79863401D02*
X172100000Y-80777056D01*
X167000000Y-70300000D02*
X170999540Y-70300000D01*
X163900000Y-69060000D02*
X164420000Y-69060000D01*
X171150000Y-73750000D02*
X171150000Y-74964772D01*
X172350000Y-82087717D02*
X173095125Y-82832843D01*
X171000000Y-70300460D02*
X171000000Y-73600000D01*
X172750000Y-84462032D02*
X173657968Y-85370000D01*
X170999540Y-70300000D02*
X171000000Y-70300460D01*
X174610000Y-87510000D02*
X175450000Y-88350000D01*
X171550000Y-75364773D02*
X171550000Y-77339087D01*
X165920000Y-69220000D02*
X167000000Y-70300000D01*
X164420000Y-70110000D02*
X165920000Y-70110000D01*
X171950000Y-79713401D02*
X172100000Y-79863401D01*
X172100000Y-80777056D02*
X172350000Y-81027056D01*
X171899996Y-78602735D02*
X171950000Y-78652740D01*
X173150000Y-86836346D02*
X173823654Y-87510000D01*
X171899999Y-77689086D02*
X171899996Y-78602735D01*
X173095125Y-82832843D02*
X172750000Y-83177968D01*
X173150000Y-85883654D02*
X173150000Y-86836346D01*
X173663654Y-85370000D02*
X173150000Y-85883654D01*
X172750000Y-83177968D02*
X172750000Y-84462032D01*
X171550000Y-77339087D02*
X171899999Y-77689086D01*
X171000000Y-73600000D02*
X171150000Y-73750000D01*
X172350000Y-81027056D02*
X172350000Y-82087717D01*
%TO.N,/<NO NET>*%
X173500000Y-88073654D02*
X173150000Y-88423654D01*
X163854314Y-70110000D02*
X163944314Y-70200000D01*
X163944314Y-70200000D02*
X164020000Y-70200000D01*
X171700000Y-80942742D02*
X171950000Y-81192742D01*
X171550000Y-78818423D02*
X171550000Y-79879087D01*
X173150000Y-91916346D02*
X173500000Y-92266346D01*
X171499994Y-78768417D02*
X171550000Y-78818423D01*
X165110000Y-70510000D02*
X165300000Y-70700000D01*
X164020000Y-70275685D02*
X164254315Y-70510000D01*
X173500000Y-93153654D02*
X173150000Y-93503654D01*
X172350000Y-83012283D02*
X172350000Y-84627718D01*
X171499998Y-77854771D02*
X171499994Y-78768417D01*
X171950000Y-82253403D02*
X172529439Y-82832843D01*
X173150000Y-89376346D02*
X173500000Y-89726346D01*
X170600000Y-73765686D02*
X170750000Y-73915686D01*
X170750000Y-75130457D02*
X171150000Y-75530458D01*
X164254315Y-70510000D02*
X165110000Y-70510000D01*
X170750000Y-73915686D02*
X170750000Y-75130457D01*
X173500000Y-94806346D02*
X173500000Y-95720000D01*
X162630000Y-69060000D02*
X163150000Y-69060000D01*
X172350000Y-84627718D02*
X173095125Y-85372843D01*
X165300000Y-70700000D02*
X170600000Y-70700000D01*
X173500000Y-92266346D02*
X173500000Y-93153654D01*
X173500000Y-87752032D02*
X173500000Y-88073654D01*
X171950000Y-81192742D02*
X171950000Y-82253403D01*
X163150000Y-70110000D02*
X163854314Y-70110000D01*
X163150000Y-69060000D02*
X163150000Y-70110000D01*
X172750000Y-87002032D02*
X173500000Y-87752032D01*
X173150000Y-93503654D02*
X173150000Y-94456346D01*
X171550000Y-79879087D02*
X171700000Y-80029087D01*
X173500000Y-95720000D02*
X174300000Y-96520000D01*
X171150000Y-77504773D02*
X171499998Y-77854771D01*
X164020000Y-70200000D02*
X164020000Y-70275685D01*
X172529439Y-82832843D02*
X172350000Y-83012283D01*
X173150000Y-88423654D02*
X173150000Y-89376346D01*
X173500000Y-90613654D02*
X173150000Y-90963654D01*
X173150000Y-94456346D02*
X173500000Y-94806346D01*
X171700000Y-80029087D02*
X171700000Y-80942742D01*
X173500000Y-89726346D02*
X173500000Y-90613654D01*
X172750000Y-85717969D02*
X172750000Y-87002032D01*
X173095125Y-85372843D02*
X172750000Y-85717969D01*
X173150000Y-90963654D02*
X173150000Y-91916346D01*
X170600000Y-70700000D02*
X170600000Y-73765686D01*
X171150000Y-75530458D02*
X171150000Y-77504773D01*
%TO.N,/SD0*%
X164944314Y-70910000D02*
X164088629Y-70910000D01*
X171963754Y-82832843D02*
X171550000Y-82419088D01*
X174300000Y-99060000D02*
X172600000Y-97360000D01*
X165134314Y-71100000D02*
X164944314Y-70910000D01*
X170200000Y-71100000D02*
X165134314Y-71100000D01*
X162584314Y-70110000D02*
X161880000Y-70110000D01*
X171550000Y-81358428D02*
X171300000Y-81108427D01*
X171099994Y-78934101D02*
X171099997Y-78020456D01*
X171300000Y-81108427D02*
X171300000Y-80194773D01*
X172350000Y-85552284D02*
X172529440Y-85372844D01*
X171150000Y-78984109D02*
X171099994Y-78934101D01*
X161880000Y-70110000D02*
X161880000Y-69060000D01*
X172600000Y-87417718D02*
X172350000Y-87167717D01*
X171950000Y-84793403D02*
X171949999Y-82846598D01*
X162984315Y-70510000D02*
X162584314Y-70110000D01*
X170750000Y-77670458D02*
X170750000Y-75696143D01*
X170750000Y-75696143D02*
X170350000Y-75296142D01*
X172600000Y-97360000D02*
X172600000Y-87417718D01*
X164088629Y-70910000D02*
X163688629Y-70510000D01*
X171300000Y-80194773D02*
X171150000Y-80044772D01*
X170200000Y-73931371D02*
X170200000Y-71100000D01*
X172350000Y-87167717D02*
X172350000Y-85552284D01*
X171949999Y-82846598D02*
X171963754Y-82832843D01*
X161880000Y-69060000D02*
X161360000Y-69060000D01*
X163688629Y-70510000D02*
X162984315Y-70510000D01*
X171150000Y-80044772D02*
X171150000Y-78984109D01*
X171550000Y-82419088D02*
X171550000Y-81358428D01*
X172529440Y-85372844D02*
X171950000Y-84793403D01*
X170350000Y-74081372D02*
X170200000Y-73931371D01*
X171099997Y-78020456D02*
X170750000Y-77670458D01*
X170350000Y-75296142D02*
X170350000Y-74081372D01*
%TO.N,/CLK*%
X171950000Y-87333402D02*
X172200000Y-87583403D01*
X169950000Y-74247057D02*
X169950000Y-75461827D01*
X161714315Y-70510000D02*
X162418629Y-70510000D01*
X163922943Y-71310000D02*
X164778628Y-71310000D01*
X162418629Y-70510000D02*
X162818630Y-70910000D01*
X170750000Y-79149792D02*
X170750000Y-80210457D01*
X170699994Y-79099785D02*
X170750000Y-79149792D01*
X163522943Y-70910000D02*
X163922943Y-71310000D01*
X169800000Y-71500000D02*
X169800000Y-74097056D01*
X170350000Y-75861828D02*
X170350000Y-77836143D01*
X171150000Y-82584773D02*
X171549999Y-82984773D01*
X161480000Y-70275685D02*
X161714315Y-70510000D01*
X164778628Y-71310000D02*
X164968629Y-71500000D01*
X170699994Y-78945593D02*
X170699991Y-79099779D01*
X160180000Y-70100000D02*
X160610000Y-70100000D01*
X171550000Y-84959088D02*
X171963755Y-85372843D01*
X170699991Y-79099779D02*
X170699994Y-79099785D01*
X170900000Y-80360458D02*
X170900000Y-81274112D01*
X164968629Y-71500000D02*
X169800000Y-71500000D01*
X160610000Y-70110000D02*
X161480000Y-70110000D01*
X170350000Y-77836143D02*
X170699994Y-78186138D01*
X172200000Y-99500000D02*
X174300000Y-101600000D01*
X170750000Y-80210457D02*
X170900000Y-80360458D01*
X161480000Y-70110000D02*
X161480000Y-70275685D01*
X169950000Y-75461827D02*
X170350000Y-75861828D01*
X169800000Y-74097056D02*
X169950000Y-74247057D01*
X172200000Y-87583403D02*
X172200000Y-99500000D01*
X170699994Y-78186138D02*
X170699994Y-78945593D01*
X162818630Y-70910000D02*
X163522943Y-70910000D01*
X170900000Y-81274112D02*
X171150000Y-81524113D01*
X171150000Y-81524113D02*
X171150000Y-82584773D01*
X171963755Y-85372843D02*
X171950000Y-85386599D01*
X160610000Y-70100000D02*
X160610000Y-70110000D01*
X160090000Y-69060000D02*
X160090000Y-70010000D01*
X171549999Y-82984773D02*
X171550000Y-84959088D01*
X171950000Y-85386599D02*
X171950000Y-87333402D01*
X160090000Y-70010000D02*
X160180000Y-70100000D01*
%TO.N,/RTS*%
X166564682Y-95084864D02*
X166849546Y-94800000D01*
X169137648Y-103875000D02*
X169425000Y-103587648D01*
X154700000Y-97100000D02*
X154700000Y-96576470D01*
X169425000Y-96625000D02*
X168100000Y-95300000D01*
X154700000Y-96576470D02*
X157138235Y-94138235D01*
X167600000Y-94800000D02*
X168100000Y-95300000D01*
X150600000Y-98700000D02*
X153100000Y-98700000D01*
X167850000Y-103875000D02*
X169137648Y-103875000D01*
X169425000Y-103587648D02*
X169425000Y-96625000D01*
X166849546Y-94800000D02*
X167600000Y-94800000D01*
X153100000Y-98700000D02*
X154700000Y-97100000D01*
X167075000Y-103100000D02*
X167850000Y-103875000D01*
%TO.N,Net-(Q2-Pad1)*%
X168725000Y-99775000D02*
X166600000Y-97650000D01*
X168725000Y-103100000D02*
X168725000Y-99775000D01*
X166600000Y-97650000D02*
X166600000Y-97150000D01*
%TO.N,/VDD33*%
X159375000Y-81125000D02*
X158650000Y-80400000D01*
X154925000Y-81673696D02*
X155226304Y-81975000D01*
X154600000Y-79575000D02*
X155675000Y-78500000D01*
X166950000Y-81900000D02*
X166200000Y-82650000D01*
X155465686Y-80425000D02*
X155140686Y-80100000D01*
X155675000Y-78825000D02*
X155600000Y-78900000D01*
X165000000Y-83300000D02*
X163325000Y-84975000D01*
X155275000Y-77500000D02*
X155400000Y-77500000D01*
X155500000Y-77400000D02*
X155500000Y-78325000D01*
X163037648Y-86675000D02*
X162001471Y-86675000D01*
X155625000Y-86212648D02*
X155625000Y-85237352D01*
X166200000Y-83000000D02*
X165900000Y-83300000D01*
X160625735Y-79291419D02*
X160625735Y-77649265D01*
X156123696Y-81975000D02*
X156425000Y-81673696D01*
X154809314Y-80900000D02*
X154925000Y-81015686D01*
X155500000Y-78325000D02*
X155675000Y-78500000D01*
X159375000Y-81703060D02*
X159375000Y-81125000D01*
X155625000Y-85237352D02*
X154600000Y-84212352D01*
X154925000Y-81015686D02*
X154925000Y-81673696D01*
X160625735Y-77649265D02*
X160875000Y-77400000D01*
X154600000Y-80100000D02*
X154600000Y-79575000D01*
X156100000Y-82600000D02*
X156123696Y-82576304D01*
X159375000Y-84048529D02*
X159375000Y-81703060D01*
X155337648Y-86500000D02*
X155625000Y-86212648D01*
X156123696Y-80425000D02*
X155465686Y-80425000D01*
X154512352Y-86500000D02*
X155337648Y-86500000D01*
X155975000Y-79575000D02*
X157225000Y-80825000D01*
X163325000Y-86387648D02*
X163037648Y-86675000D01*
X155600000Y-78900000D02*
X155975000Y-79275000D01*
X157225000Y-80825000D02*
X157225000Y-81200000D01*
X154600000Y-80900000D02*
X154809314Y-80900000D01*
X154200000Y-88350000D02*
X154200000Y-86662352D01*
X162001471Y-86675000D02*
X159375000Y-84048529D01*
X155675000Y-78500000D02*
X155675000Y-78825000D01*
X155975000Y-79275000D02*
X155975000Y-79575000D01*
X156425000Y-81673696D02*
X156425000Y-80726304D01*
X165900000Y-83300000D02*
X165000000Y-83300000D01*
X154200000Y-86662352D02*
X154437352Y-86425000D01*
X156425000Y-80726304D02*
X156123696Y-80425000D01*
X163325000Y-84975000D02*
X163325000Y-86387648D01*
X154600000Y-84212352D02*
X154600000Y-80900000D01*
X155226304Y-81975000D02*
X156123696Y-81975000D01*
X155140686Y-80100000D02*
X154600000Y-80100000D01*
X166200000Y-82650000D02*
X166200000Y-83000000D01*
X154437352Y-86425000D02*
X154512352Y-86500000D01*
X156123696Y-82576304D02*
X156123696Y-81975000D01*
X161510916Y-79562386D02*
X160896702Y-79562386D01*
X155400000Y-77500000D02*
X155500000Y-77400000D01*
X160896702Y-79562386D02*
X160625735Y-79291419D01*
%TO.N,/ID0*%
X150700000Y-93425000D02*
X150725000Y-93450000D01*
X155100000Y-100900000D02*
X155350000Y-101150000D01*
X164500000Y-101150000D02*
X166600000Y-99050000D01*
X150400000Y-85600000D02*
X150750000Y-85600000D01*
X158675000Y-93450000D02*
X155100000Y-97025000D01*
X155100000Y-97025000D02*
X155100000Y-100900000D01*
X150700000Y-91600000D02*
X150700000Y-93425000D01*
X155350000Y-101150000D02*
X164500000Y-101150000D01*
X150000000Y-86000000D02*
X150400000Y-85600000D01*
X150725000Y-93450000D02*
X158675000Y-93450000D01*
%TO.N,Net-(Q1-Pad1)*%
X150600000Y-96800000D02*
X149850000Y-97550000D01*
X149850000Y-102900000D02*
X149850000Y-102775000D01*
X149850000Y-97550000D02*
X149850000Y-102900000D01*
X149850000Y-102775000D02*
X149725000Y-102775000D01*
%TO.N,/EN*%
X152600000Y-97750000D02*
X156300001Y-94049999D01*
X168225000Y-80225000D02*
X168900000Y-80900000D01*
X149820000Y-53840000D02*
X150700000Y-53840000D01*
X158285786Y-75800000D02*
X157151471Y-76934315D01*
X161675000Y-80225000D02*
X168225000Y-80225000D01*
X168900000Y-80900000D02*
X168525000Y-81275000D01*
X161400000Y-80300000D02*
X161600000Y-80300000D01*
X161850000Y-93350000D02*
X160825000Y-93350000D01*
X160225735Y-79125735D02*
X160100000Y-79251471D01*
X157525000Y-77893631D02*
X157524999Y-78452942D01*
X169850000Y-87125000D02*
X168525000Y-85800000D01*
X157400000Y-77600000D02*
X157400000Y-77768629D01*
X160100000Y-79251471D02*
X160100000Y-79748529D01*
X162800000Y-92400000D02*
X161850000Y-93350000D01*
X160100000Y-79748529D02*
X160451471Y-80100000D01*
X160948529Y-80100000D02*
X161074264Y-79974264D01*
X158500000Y-75800000D02*
X158285786Y-75800000D01*
X165049160Y-97448914D02*
X165049160Y-97149160D01*
X158425000Y-79352945D02*
X159547055Y-79352945D01*
X169850000Y-92275000D02*
X169850000Y-87125000D01*
X157524999Y-78452942D02*
X158425000Y-79352945D01*
X157400000Y-77768629D02*
X157525000Y-77893631D01*
X156300001Y-94049999D02*
X156343113Y-94049999D01*
X160451471Y-80100000D02*
X160948529Y-80100000D01*
X168525000Y-81275000D02*
X168525000Y-85800000D01*
X160825000Y-93350000D02*
X168775000Y-93350000D01*
X165049160Y-97149160D02*
X163200000Y-95300000D01*
X168775000Y-93350000D02*
X169850000Y-92275000D01*
X161074264Y-79974264D02*
X161400000Y-80300000D01*
X160000000Y-78900000D02*
X160225735Y-79125735D01*
X159547055Y-79352945D02*
X160000000Y-78900000D01*
X157151471Y-76934315D02*
X157151471Y-77351471D01*
X157151471Y-77351471D02*
X157400000Y-77600000D01*
X161600000Y-80300000D02*
X161675000Y-80225000D01*
X145300000Y-58360000D02*
X149820000Y-53840000D01*
%TO.N,/VBUS*%
X169550000Y-75627512D02*
X169550000Y-74900000D01*
X154700000Y-71800000D02*
X155042938Y-71800000D01*
X163647258Y-71600000D02*
X163757258Y-71710000D01*
X164612944Y-71710000D02*
X164802944Y-71900000D01*
X170100000Y-78151828D02*
X169950000Y-78001828D01*
X150000000Y-82600000D02*
X151800000Y-82600000D01*
X170100000Y-79065468D02*
X170100000Y-78151828D01*
X170299988Y-79265456D02*
X170100000Y-79065468D01*
X166550000Y-71900000D02*
X168150000Y-73500000D01*
X162958274Y-94300000D02*
X169850000Y-94300000D01*
X149700000Y-82300000D02*
X150000000Y-82600000D01*
X169950000Y-76027513D02*
X169550000Y-75627512D01*
X150050000Y-76450000D02*
X150050000Y-78107517D01*
X161500000Y-96425000D02*
X161500000Y-95758274D01*
X169950000Y-78001828D02*
X169950000Y-76027513D01*
X149700000Y-78457518D02*
X149700000Y-82300000D01*
X169550000Y-74900000D02*
X168150000Y-73500000D01*
X161500000Y-95758274D02*
X162958274Y-94300000D01*
X152800000Y-73700000D02*
X154700000Y-71800000D01*
X170299988Y-93850012D02*
X170299988Y-79265456D01*
X155042938Y-71800000D02*
X155242938Y-71600000D01*
X152800000Y-73700000D02*
X150050000Y-76450000D01*
X169850000Y-94300000D02*
X170299988Y-93850012D01*
X151800000Y-82600000D02*
X154925000Y-85725000D01*
X163757258Y-71710000D02*
X164612944Y-71710000D01*
X150050000Y-78107517D02*
X149700000Y-78457518D01*
X155242938Y-71600000D02*
X163647258Y-71600000D01*
X164802944Y-71900000D02*
X166550000Y-71900000D01*
%TO.N,Net-(U1-VDD)*%
X151200000Y-77300000D02*
X150700000Y-77300000D01*
X151300000Y-77400000D02*
X151200000Y-77300000D01*
X149230000Y-52570000D02*
X150700000Y-52570000D01*
X151480000Y-77580000D02*
X151300000Y-77400000D01*
X151480000Y-80500000D02*
X151480000Y-80400000D01*
X151600000Y-76100000D02*
X151300000Y-76100000D01*
X151300000Y-76100000D02*
X151300000Y-77400000D01*
X150700000Y-77300000D02*
X150600000Y-77400000D01*
X151325000Y-81400000D02*
X151325000Y-80555000D01*
X151325000Y-80555000D02*
X151480000Y-80400000D01*
X151480000Y-80400000D02*
X151480000Y-77580000D01*
X148800000Y-53000000D02*
X149230000Y-52570000D01*
%TO.N,/USB_DP*%
X156323696Y-78283011D02*
X156323696Y-77848696D01*
X158300000Y-82548529D02*
X158300000Y-82051471D01*
X156375000Y-79409314D02*
X156375000Y-78334315D01*
X156351304Y-77848696D02*
X156351471Y-77848529D01*
X157390686Y-80425000D02*
X156375000Y-79409314D01*
X160200000Y-95750001D02*
X160200000Y-96425000D01*
X159750000Y-92500000D02*
X159750000Y-95300001D01*
X157975000Y-82873529D02*
X158300000Y-82548529D01*
X156351471Y-77848529D02*
X156351471Y-76602945D01*
X159575000Y-87825000D02*
X159575000Y-86675000D01*
X157975000Y-81726471D02*
X157975000Y-80726304D01*
X156000000Y-74200000D02*
X155900000Y-74100000D01*
X156323696Y-77848696D02*
X156351304Y-77848696D01*
X159750000Y-92500000D02*
X159750000Y-88000000D01*
X157975000Y-85075000D02*
X157975000Y-82873529D01*
X156000000Y-76065686D02*
X156000000Y-74200000D01*
X158300000Y-82051471D02*
X157975000Y-81726471D01*
X156375000Y-78334315D02*
X156323696Y-78283011D01*
X156444365Y-76510050D02*
X156000000Y-76065686D01*
X159750000Y-88000000D02*
X159575000Y-87825000D01*
X159750000Y-95300001D02*
X160200000Y-95750001D01*
X158800000Y-91900000D02*
X159150000Y-91900000D01*
X157975000Y-80726304D02*
X157673696Y-80425000D01*
X157673696Y-80425000D02*
X157390686Y-80425000D01*
X155900000Y-74100000D02*
X155900000Y-73700000D01*
X159575000Y-86675000D02*
X157975000Y-85075000D01*
X159150000Y-91900000D02*
X159750000Y-92500000D01*
X156351471Y-76602945D02*
X156444365Y-76510050D01*
%TO.N,/SENSOR_VP*%
X146450000Y-58410000D02*
X149750000Y-55110000D01*
X145300000Y-60900000D02*
X146450000Y-59750000D01*
X149750000Y-55110000D02*
X150700000Y-55110000D01*
X146450000Y-59750000D02*
X146450000Y-58410000D01*
%TO.N,/SENSOR_VN*%
X145300000Y-63440000D02*
X144800000Y-62940000D01*
X146850000Y-58600000D02*
X147000000Y-58600000D01*
X144800000Y-62940000D02*
X144800000Y-62026346D01*
X146450000Y-60423654D02*
X146396016Y-60369670D01*
X146396016Y-60369670D02*
X146850000Y-59915685D01*
X147000000Y-58600000D02*
X149220000Y-56380000D01*
X144800000Y-62026346D02*
X144823654Y-62050000D01*
X146450000Y-61376346D02*
X146450000Y-60423654D01*
X146850000Y-59915685D02*
X146850000Y-58600000D01*
X145776346Y-62050000D02*
X146450000Y-61376346D01*
X144823654Y-62050000D02*
X145776346Y-62050000D01*
X149220000Y-56380000D02*
X150700000Y-56380000D01*
%TO.N,/IO34*%
X145700000Y-65580000D02*
X145700000Y-64590000D01*
X148515686Y-57650000D02*
X150700000Y-57650000D01*
X146450000Y-62963654D02*
X145936346Y-62450000D01*
X147250000Y-60081370D02*
X147250000Y-58915686D01*
X146850000Y-61542031D02*
X146850000Y-60481371D01*
X145942032Y-62450000D02*
X146850000Y-61542031D01*
X145936346Y-62450000D02*
X145942032Y-62450000D01*
X147250000Y-58915686D02*
X148515686Y-57650000D01*
X145300000Y-65980000D02*
X145700000Y-65580000D01*
X145700000Y-64590000D02*
X145776346Y-64590000D01*
X146850000Y-60481371D02*
X147250000Y-60081370D01*
X146450000Y-63916346D02*
X146450000Y-62963654D01*
X145776346Y-64590000D02*
X146450000Y-63916346D01*
%TO.N,/IO35*%
X146450000Y-65503654D02*
X146100000Y-65153654D01*
X145776346Y-67130000D02*
X146450000Y-66456346D01*
X145600000Y-67130000D02*
X145776346Y-67130000D01*
X146450000Y-66456346D02*
X146450000Y-65503654D01*
X147900000Y-60500000D02*
X147900000Y-60300000D01*
X147900000Y-60300000D02*
X149280000Y-58920000D01*
X146850000Y-62797968D02*
X146504875Y-62452843D01*
X145300000Y-68520000D02*
X145600000Y-68220000D01*
X146100000Y-65153654D02*
X146100000Y-64832032D01*
X149280000Y-58920000D02*
X150700000Y-58920000D01*
X146504875Y-62452843D02*
X147250000Y-61707716D01*
X146850000Y-64082031D02*
X146850000Y-62797968D01*
X145600000Y-68220000D02*
X145600000Y-67130000D01*
X147250000Y-61707716D02*
X147250000Y-61150000D01*
X146100000Y-64832032D02*
X146850000Y-64082031D01*
X147250000Y-61150000D02*
X147900000Y-60500000D01*
%TO.N,/IO32*%
X147250000Y-62690000D02*
X149750000Y-60190000D01*
X146600000Y-65087968D02*
X146600000Y-64897718D01*
X146600000Y-66872032D02*
X146850000Y-66622031D01*
X146600000Y-69760000D02*
X146600000Y-66872032D01*
X149750000Y-60190000D02*
X150700000Y-60190000D01*
X146850000Y-65337968D02*
X146600000Y-65087968D01*
X147250000Y-64247716D02*
X147250000Y-62690000D01*
X145300000Y-71060000D02*
X146600000Y-69760000D01*
X146600000Y-64897718D02*
X147250000Y-64247716D01*
X146850000Y-66622031D02*
X146850000Y-65337968D01*
%TO.N,/IO33*%
X146450000Y-71536346D02*
X146300000Y-71686346D01*
X147070560Y-64992842D02*
X147250000Y-65172283D01*
X147000000Y-69925686D02*
X146396016Y-70529670D01*
X147250000Y-66787716D02*
X147000000Y-67037717D01*
X146300000Y-72600000D02*
X145300000Y-73600000D01*
X149750000Y-61460000D02*
X147650000Y-63560000D01*
X147250000Y-65172283D02*
X147250000Y-66787716D01*
X147000000Y-67037717D02*
X147000000Y-69925686D01*
X146450000Y-70583654D02*
X146450000Y-71536346D01*
X150700000Y-61460000D02*
X149750000Y-61460000D01*
X146300000Y-71686346D02*
X146300000Y-72600000D01*
X147650000Y-63560000D02*
X147650000Y-64413401D01*
X147650000Y-64413401D02*
X147070560Y-64992842D01*
X146396016Y-70529670D02*
X146450000Y-70583654D01*
%TO.N,/IO25*%
X145700000Y-74750000D02*
X145776346Y-74750000D01*
X145700000Y-75740000D02*
X145700000Y-74750000D01*
X147400000Y-67203402D02*
X147650000Y-66953401D01*
X145776346Y-74750000D02*
X146450000Y-74076346D01*
X147650000Y-65006598D02*
X147636244Y-64992842D01*
X145300000Y-76140000D02*
X145700000Y-75740000D01*
X149370000Y-62730000D02*
X150700000Y-62730000D01*
X146700000Y-72765686D02*
X146700000Y-71852032D01*
X147400000Y-70091372D02*
X147400000Y-67203402D01*
X146450000Y-73123654D02*
X146396016Y-73069670D01*
X146396016Y-73069670D02*
X146700000Y-72765686D01*
X146700000Y-71852032D02*
X146850000Y-71702031D01*
X146850000Y-71702031D02*
X146850000Y-70641372D01*
X148050000Y-64579086D02*
X148050000Y-64050000D01*
X146850000Y-70641372D02*
X147400000Y-70091372D01*
X147636244Y-64992842D02*
X148050000Y-64579086D01*
X146450000Y-74076346D02*
X146450000Y-73123654D01*
X147650000Y-66953401D02*
X147650000Y-65006598D01*
X148050000Y-64050000D02*
X149370000Y-62730000D01*
%TO.N,/IO26*%
X146450000Y-76616346D02*
X145776346Y-77290000D01*
X150700000Y-64000000D02*
X149750000Y-64000000D01*
X146850000Y-73181372D02*
X146850000Y-74242032D01*
X147250000Y-70807058D02*
X147250001Y-71867716D01*
X146850000Y-74242032D02*
X146100000Y-74992031D01*
X146100000Y-75313654D02*
X146450000Y-75663654D01*
X147800000Y-70257058D02*
X147250000Y-70807058D01*
X146450000Y-75663654D02*
X146450000Y-76616346D01*
X147100000Y-72017717D02*
X147100000Y-72931372D01*
X144400000Y-77780000D02*
X145300000Y-78680000D01*
X146100000Y-74992031D02*
X146100000Y-75313654D01*
X147250001Y-71867716D02*
X147100000Y-72017717D01*
X148050000Y-67119086D02*
X147800000Y-67369087D01*
X147800000Y-67369087D02*
X147800000Y-70257058D01*
X144400000Y-76866346D02*
X144400000Y-77780000D01*
X145776346Y-77290000D02*
X144823654Y-77290000D01*
X149750000Y-64000000D02*
X148050000Y-65700000D01*
X147100000Y-72931372D02*
X146850000Y-73181372D01*
X144823654Y-77290000D02*
X144400000Y-76866346D01*
X148050000Y-65700000D02*
X148050000Y-67119086D01*
%TO.N,/IO27*%
X145942032Y-77690000D02*
X146850000Y-76782032D01*
X146504875Y-75152843D02*
X147250000Y-74407718D01*
X149650000Y-65370000D02*
X149750000Y-65270000D01*
X148945686Y-65370000D02*
X149650000Y-65370000D01*
X146450000Y-79156346D02*
X146450000Y-78203654D01*
X147500000Y-72183403D02*
X147650001Y-72033401D01*
X144800000Y-79806346D02*
X144823654Y-79830000D01*
X147250000Y-73347058D02*
X147500000Y-73097058D01*
X145936346Y-77690000D02*
X145942032Y-77690000D01*
X147650001Y-72033401D02*
X147650000Y-70972744D01*
X146850000Y-75497968D02*
X146504875Y-75152843D01*
X147250000Y-74407718D02*
X147250000Y-73347058D01*
X145776346Y-79830000D02*
X146450000Y-79156346D01*
X146450000Y-78203654D02*
X145936346Y-77690000D01*
X148200000Y-67534772D02*
X148450000Y-67284771D01*
X147650000Y-70972744D02*
X148200000Y-70422744D01*
X148450000Y-67284771D02*
X148450000Y-65865686D01*
X144823654Y-79830000D02*
X145776346Y-79830000D01*
X148200000Y-70422744D02*
X148200000Y-67534772D01*
X148450000Y-65865686D02*
X148945686Y-65370000D01*
X149750000Y-65270000D02*
X150700000Y-65270000D01*
X147500000Y-73097058D02*
X147500000Y-72183403D01*
X144800000Y-80720000D02*
X144800000Y-79806346D01*
X145300000Y-81220000D02*
X144800000Y-80720000D01*
X146850000Y-76782032D02*
X146850000Y-75497968D01*
%TO.N,/IO14*%
X146850000Y-78037969D02*
X146850000Y-79322032D01*
X148600000Y-67700457D02*
X148600000Y-70588430D01*
X147100000Y-75123404D02*
X147100000Y-75182282D01*
X146450000Y-81696346D02*
X145776346Y-82370000D01*
X145942031Y-80230000D02*
X145936346Y-80230000D01*
X147250000Y-75332283D02*
X147250000Y-76947718D01*
X145776346Y-82370000D02*
X144823654Y-82370000D01*
X147650000Y-74573404D02*
X147100000Y-75123404D01*
X146450000Y-80743654D02*
X146450000Y-81696346D01*
X145936346Y-80230000D02*
X146450000Y-80743654D01*
X149760457Y-66540000D02*
X148600000Y-67700457D01*
X144823654Y-82370000D02*
X144700000Y-82246346D01*
X147650000Y-73512744D02*
X147650000Y-74573404D01*
X146850000Y-79322032D02*
X145942031Y-80230000D01*
X147900000Y-73262744D02*
X147650000Y-73512744D01*
X147900000Y-72349088D02*
X147900000Y-73262744D01*
X144700000Y-83160000D02*
X145300000Y-83760000D01*
X148050002Y-72199086D02*
X147900000Y-72349088D01*
X150700000Y-66540000D02*
X149760457Y-66540000D01*
X146504875Y-77692843D02*
X146850000Y-78037969D01*
X148050000Y-71138430D02*
X148050002Y-72199086D01*
X148600000Y-70588430D02*
X148050000Y-71138430D01*
X147250000Y-76947718D02*
X146504875Y-77692843D01*
X147100000Y-75182282D02*
X147250000Y-75332283D01*
X144700000Y-82246346D02*
X144700000Y-83160000D01*
%TO.N,/IO12*%
X149000000Y-69800000D02*
X150700000Y-68100000D01*
X150700000Y-68100000D02*
X150700000Y-67810000D01*
X146450000Y-83283654D02*
X145936346Y-82770000D01*
X148300000Y-72514774D02*
X148450002Y-72364770D01*
X148450002Y-72364770D02*
X148450000Y-71304116D01*
X146450000Y-84236346D02*
X146450000Y-83283654D01*
X145776346Y-84910000D02*
X146450000Y-84236346D01*
X148050000Y-73678430D02*
X148300000Y-73428430D01*
X147250000Y-79487718D02*
X147250000Y-77872284D01*
X147650000Y-77113404D02*
X147650000Y-75139090D01*
X146850000Y-80577968D02*
X146504875Y-80232843D01*
X145300000Y-84910000D02*
X145776346Y-84910000D01*
X145942032Y-82770000D02*
X146850000Y-81862032D01*
X146504875Y-80232843D02*
X147250000Y-79487718D01*
X147250000Y-77872284D02*
X147070560Y-77692844D01*
X145936346Y-82770000D02*
X145942032Y-82770000D01*
X148300000Y-73428430D02*
X148300000Y-72514774D01*
X146850000Y-81862032D02*
X146850000Y-80577968D01*
X149000000Y-70754116D02*
X149000000Y-69800000D01*
X147650000Y-75139090D02*
X148050000Y-74739090D01*
X148050000Y-74739090D02*
X148050000Y-73678430D01*
X148450000Y-71304116D02*
X149000000Y-70754116D01*
X145300000Y-86300000D02*
X145300000Y-84910000D01*
X147070560Y-77692844D02*
X147650000Y-77113404D01*
%TO.N,/IO13*%
X147636246Y-77692844D02*
X147650000Y-77706599D01*
X149400000Y-70919802D02*
X148850000Y-71469802D01*
X144500000Y-90000000D02*
X145300000Y-90800000D01*
X145776346Y-87450000D02*
X144823654Y-87450000D01*
X147650000Y-79653404D02*
X147070561Y-80232843D01*
X154380198Y-70200000D02*
X149500000Y-70200000D01*
X155010000Y-69570198D02*
X154380198Y-70200000D01*
X148700000Y-73594116D02*
X148450000Y-73844116D01*
X148700000Y-72680458D02*
X148700000Y-73594116D01*
X148450000Y-74904776D02*
X148050000Y-75304776D01*
X144150000Y-89316346D02*
X144500000Y-89666346D01*
X155010000Y-69060000D02*
X155010000Y-69570198D01*
X144500000Y-89666346D02*
X144500000Y-90000000D01*
X145936346Y-85310000D02*
X146450000Y-85823654D01*
X144500000Y-87126346D02*
X144500000Y-88013654D01*
X148850000Y-71469802D02*
X148850002Y-72530454D01*
X148050000Y-77279090D02*
X147636246Y-77692844D01*
X146850000Y-84402032D02*
X145942031Y-85310000D01*
X144500000Y-88013654D02*
X144150000Y-88363654D01*
X146504875Y-82772843D02*
X146850000Y-83117969D01*
X146850000Y-83117969D02*
X146850000Y-84402032D01*
X149400000Y-70300000D02*
X149400000Y-70919802D01*
X148050000Y-75304776D02*
X148050000Y-77279090D01*
X146450000Y-85823654D02*
X146450000Y-86776346D01*
X144150000Y-88363654D02*
X144150000Y-89316346D01*
X145300000Y-90800000D02*
X145300000Y-91380000D01*
X147070561Y-80232843D02*
X147250000Y-80412283D01*
X146450000Y-86776346D02*
X145776346Y-87450000D01*
X147250000Y-82027718D02*
X146504875Y-82772843D01*
X144823654Y-87450000D02*
X144500000Y-87126346D01*
X148450000Y-73844116D02*
X148450000Y-74904776D01*
X145942031Y-85310000D02*
X145936346Y-85310000D01*
X147250000Y-80412283D02*
X147250000Y-82027718D01*
X149500000Y-70200000D02*
X149400000Y-70300000D01*
X147650000Y-77706599D02*
X147650000Y-79653404D01*
X148850002Y-72530454D02*
X148700000Y-72680458D01*
%TO.N,/SD2*%
X147650000Y-81750000D02*
X147650000Y-82193404D01*
X147650000Y-82193404D02*
X147070560Y-82772844D01*
X149800000Y-71085488D02*
X149250000Y-71635488D01*
X156280000Y-69060000D02*
X156280000Y-70010000D01*
X147250000Y-84567718D02*
X146504875Y-85312843D01*
X146850000Y-86942032D02*
X146450000Y-87342032D01*
X156280000Y-70010000D02*
X155760000Y-69490000D01*
X149250002Y-72696138D02*
X149100000Y-72846142D01*
X146850000Y-85657969D02*
X146850000Y-86942032D01*
X148850000Y-74009802D02*
X148850000Y-75070462D01*
X149800000Y-70600000D02*
X149800000Y-71085488D01*
X146504875Y-85312843D02*
X146850000Y-85657969D01*
X147700000Y-80169090D02*
X147700000Y-81700000D01*
X148850000Y-75070462D02*
X148450000Y-75470462D01*
X149250000Y-71635488D02*
X149250002Y-72696138D01*
X146450000Y-91856346D02*
X146450000Y-92770000D01*
X146450000Y-92770000D02*
X145300000Y-93920000D01*
X146450000Y-87342032D02*
X146450000Y-90903654D01*
X155760000Y-70110000D02*
X155035884Y-70110000D01*
X148050001Y-77844775D02*
X148050000Y-79819090D01*
X155035884Y-70110000D02*
X154545883Y-70600000D01*
X149100000Y-73759802D02*
X148850000Y-74009802D01*
X154545883Y-70600000D02*
X149800000Y-70600000D01*
X147250000Y-82952284D02*
X147250000Y-84567718D01*
X148450000Y-75470462D02*
X148450000Y-77444776D01*
X147070560Y-82772844D02*
X147250000Y-82952284D01*
X149100000Y-72846142D02*
X149100000Y-73759802D01*
X148450000Y-77444776D02*
X148050001Y-77844775D01*
X148050000Y-79819090D02*
X147700000Y-80169090D01*
X146450000Y-90903654D02*
X146450000Y-91856346D01*
X147700000Y-81700000D02*
X147650000Y-81750000D01*
X155760000Y-69490000D02*
X155760000Y-70110000D01*
%TO.N,/SD3*%
X148050000Y-81915685D02*
X148100000Y-81865685D01*
X156114314Y-70410000D02*
X156445686Y-70410000D01*
X148850000Y-77610462D02*
X148850000Y-75636148D01*
X156445686Y-70410000D02*
X156680000Y-70175685D01*
X155925685Y-70510000D02*
X156070000Y-70365685D01*
X147636246Y-82772844D02*
X148050000Y-82359090D01*
X147250000Y-87107718D02*
X147250000Y-85492284D01*
X145300000Y-96460000D02*
X146500000Y-95260000D01*
X149500000Y-73011826D02*
X149650003Y-72861821D01*
X157030000Y-69060000D02*
X157550000Y-69060000D01*
X149650001Y-71801173D02*
X150200000Y-71251174D01*
X149500000Y-73925488D02*
X149500000Y-73011826D01*
X147250000Y-85492284D02*
X147070560Y-85312844D01*
X149250000Y-75236148D02*
X149250000Y-74175488D01*
X150200000Y-71000000D02*
X154711568Y-71000000D01*
X147650000Y-82786598D02*
X147636246Y-82772844D01*
X149650003Y-72861821D02*
X149650001Y-71801173D01*
X148050000Y-82359090D02*
X148050000Y-81915685D01*
X147070560Y-85312844D02*
X147650000Y-84733404D01*
X146850000Y-87507718D02*
X147250000Y-87107718D01*
X155201569Y-70510000D02*
X155925685Y-70510000D01*
X146500000Y-95260000D02*
X146500000Y-93285686D01*
X154711568Y-71000000D02*
X155201569Y-70510000D01*
X156070000Y-70365685D02*
X156114314Y-70410000D01*
X148100000Y-80334776D02*
X148450000Y-79984776D01*
X150200000Y-71251174D02*
X150200000Y-71000000D01*
X148100000Y-81865685D02*
X148100000Y-80334776D01*
X147650000Y-84733404D02*
X147650000Y-82786598D01*
X148450001Y-78010461D02*
X148850000Y-77610462D01*
X146850000Y-92935686D02*
X146850000Y-87507718D01*
X146500000Y-93285686D02*
X146850000Y-92935686D01*
X156680000Y-70110000D02*
X157030000Y-70110000D01*
X149250000Y-74175488D02*
X149500000Y-73925488D01*
X148450000Y-79984776D02*
X148450001Y-78010461D01*
X157030000Y-70110000D02*
X157030000Y-69060000D01*
X156680000Y-70175685D02*
X156680000Y-70110000D01*
X148850000Y-75636148D02*
X149250000Y-75236148D01*
%TO.N,/CMD*%
X148850000Y-80150461D02*
X148850001Y-78176147D01*
X149650000Y-74341173D02*
X149900000Y-74091173D01*
X158300000Y-69580000D02*
X158820000Y-69060000D01*
X156279996Y-70810002D02*
X156280001Y-70810000D01*
X148450000Y-82081371D02*
X148500000Y-82031370D01*
X148050000Y-84899089D02*
X148050000Y-82924776D01*
X148450000Y-82524775D02*
X148450000Y-82081371D01*
X145300000Y-99000000D02*
X147000000Y-97300000D01*
X147636246Y-85312844D02*
X148050000Y-84899089D01*
X148850001Y-78176147D02*
X149250000Y-77776147D01*
X156091371Y-70910000D02*
X156191371Y-70810000D01*
X158300000Y-70110000D02*
X158300000Y-69580000D01*
X150050001Y-71966859D02*
X150600000Y-71416859D01*
X150600000Y-71416859D02*
X150600000Y-71400000D01*
X154877253Y-71400000D02*
X155367254Y-70910000D01*
X149900000Y-73177510D02*
X150050003Y-73027505D01*
X155367254Y-70910000D02*
X156091371Y-70910000D01*
X147000000Y-97300000D02*
X147000000Y-93351372D01*
X148500000Y-82031370D02*
X148500000Y-80500462D01*
X156280001Y-70810000D02*
X156611372Y-70809999D01*
X148050000Y-82924776D02*
X148450000Y-82524775D01*
X149250000Y-75801834D02*
X149650000Y-75401833D01*
X150050003Y-73027505D02*
X150050001Y-71966859D01*
X149900000Y-74091173D02*
X149900000Y-73177510D01*
X147250000Y-93101371D02*
X147250000Y-87673404D01*
X147650000Y-87273403D02*
X147650000Y-85326598D01*
X147650000Y-85326598D02*
X147636246Y-85312844D01*
X150600000Y-71400000D02*
X154877253Y-71400000D01*
X157430000Y-70110000D02*
X158300000Y-70110000D01*
X157195685Y-70510000D02*
X157430000Y-70275685D01*
X157430000Y-70275685D02*
X157430000Y-70110000D01*
X148500000Y-80500462D02*
X148850000Y-80150461D01*
X147250000Y-87673404D02*
X147650000Y-87273403D01*
X147000000Y-93351372D02*
X147250000Y-93101371D01*
X156611372Y-70809999D02*
X156911370Y-70510000D01*
X156911370Y-70510000D02*
X157195685Y-70510000D01*
X156191371Y-70810000D02*
X156279996Y-70810002D01*
X149250000Y-77776147D02*
X149250000Y-75801834D01*
X149650000Y-75401833D02*
X149650000Y-74341173D01*
%TO.N,/EXT_5V*%
X163600000Y-76500000D02*
X163600000Y-78012352D01*
X166050000Y-73500000D02*
X166050000Y-74050000D01*
X163600000Y-78012352D02*
X165087648Y-79500000D01*
X160286094Y-81911094D02*
X160275000Y-81900000D01*
X165087648Y-79500000D02*
X166800000Y-79500000D01*
X166050000Y-74050000D02*
X163600000Y-76500000D01*
%TO.N,/DTR*%
X153300000Y-101500000D02*
X155134314Y-101500000D01*
X155184315Y-101550000D02*
X157750000Y-101550000D01*
X168600000Y-98100000D02*
X168600000Y-96700000D01*
X151825000Y-102975000D02*
X153300000Y-101500000D01*
X157750000Y-101550000D02*
X160700000Y-104500000D01*
X151825000Y-102800000D02*
X151825000Y-102975000D01*
X155134314Y-101500000D02*
X155184315Y-101550000D01*
X168600000Y-96700000D02*
X167300000Y-95400000D01*
%TO.N,/TX0*%
X169500000Y-79800000D02*
X169884423Y-79415577D01*
X169884423Y-79415577D02*
X168900000Y-78431154D01*
X168900000Y-77800000D02*
X169200000Y-77500000D01*
X166300000Y-90500000D02*
X167000000Y-89800000D01*
X164798527Y-90500000D02*
X166300000Y-90500000D01*
X168900000Y-78431154D02*
X168900000Y-77800000D01*
X163748527Y-89450000D02*
X164798527Y-90500000D01*
%TO.N,Net-(D1-A)*%
X156751471Y-76768630D02*
X156751471Y-78145100D01*
X158259315Y-79752945D02*
X159700000Y-79752945D01*
X161034314Y-80500000D02*
X161150000Y-80615686D01*
X157700000Y-75820100D02*
X156751471Y-76768630D01*
X159975000Y-73500000D02*
X158590552Y-72115552D01*
X159700000Y-79752945D02*
X159700000Y-79914215D01*
X157253185Y-78746815D02*
X158259315Y-79752945D01*
X156751471Y-78145100D02*
X157124999Y-78518628D01*
X157124999Y-78518628D02*
X157124999Y-78618629D01*
X160285785Y-80500000D02*
X161034314Y-80500000D01*
X156400000Y-74200000D02*
X156400000Y-74500000D01*
X161150000Y-80615686D02*
X161150000Y-81125000D01*
X161150000Y-81125000D02*
X161925000Y-81900000D01*
X157700000Y-75800000D02*
X157700000Y-75820100D01*
X157124999Y-78618629D02*
X157253185Y-78746815D01*
X157124999Y-78618628D02*
X157253185Y-78746815D01*
X159700000Y-79914215D02*
X160285785Y-80500000D01*
X158484448Y-72115552D02*
X156400000Y-74200000D01*
X158590552Y-72115552D02*
X158484448Y-72115552D01*
X156400000Y-74500000D02*
X157700000Y-75800000D01*
%TO.N,Net-(U3-~{SUSPEND})*%
X162625000Y-82387648D02*
X162337648Y-82675000D01*
X161211765Y-83288235D02*
X161211765Y-84188235D01*
X162337648Y-82675000D02*
X161825000Y-82675000D01*
X163675000Y-81025000D02*
X163700000Y-81000000D01*
X163700000Y-81000000D02*
X163700000Y-80800000D01*
X163675000Y-81800000D02*
X163675000Y-81025000D01*
X162625000Y-81875000D02*
X162625000Y-82387648D01*
X163700000Y-80800000D02*
X162625000Y-81875000D01*
X161825000Y-82675000D02*
X161211765Y-83288235D01*
%TO.N,/RX0*%
X164750000Y-89250000D02*
X165000000Y-89500000D01*
X166548529Y-78400000D02*
X168200000Y-78400000D01*
X168200000Y-78400000D02*
X168200000Y-79600012D01*
X164750000Y-88450000D02*
X164750000Y-89250000D01*
X169800000Y-81200012D02*
X169800000Y-85800000D01*
X169800000Y-85800000D02*
X169300000Y-85300000D01*
X165100000Y-88100000D02*
X164750000Y-88450000D01*
X166075000Y-77600000D02*
X166075000Y-77926471D01*
X169300000Y-85300000D02*
X169300000Y-85000000D01*
X168200000Y-79600012D02*
X169800000Y-81200012D01*
X166075000Y-77926471D02*
X166548529Y-78400000D01*
%TO.N,Net-(U3-VBUS)*%
X160168480Y-83231520D02*
X160168480Y-83993480D01*
X156575000Y-84325000D02*
X156575000Y-85725000D01*
X160300000Y-83100000D02*
X160168480Y-83231520D01*
X162075000Y-85900000D02*
X162625000Y-85900000D01*
X156025000Y-86275000D02*
X156575000Y-85725000D01*
X157100000Y-83800000D02*
X156575000Y-84325000D01*
X156025000Y-86378333D02*
X156025000Y-86275000D01*
X155400000Y-86900000D02*
X155503334Y-86900000D01*
X160168480Y-83993480D02*
X162075000Y-85900000D01*
X155503334Y-86900000D02*
X156025000Y-86378333D01*
X154800000Y-87500000D02*
X155400000Y-86900000D01*
%TO.N,Net-(U3-~{RST})*%
X161268491Y-78693861D02*
X161537352Y-78425000D01*
X155900000Y-83800000D02*
X157400000Y-82300000D01*
X161537352Y-78425000D02*
X161537352Y-78387648D01*
X157400000Y-82300000D02*
X157700000Y-82300000D01*
X161268491Y-78800000D02*
X161268491Y-78693861D01*
X161537352Y-78387648D02*
X162473481Y-77451519D01*
%TD*%
M02*
